<svg version="1.1" id="Layer_1" xmlns="http://www.w3.org/2000/svg" xmlns:xlink="http://www.w3.org/1999/xlink" x="0px" y="0px"
	 width="100%" viewBox="0 0 500 500" enable-background="new 0 0 500 500" xml:space="preserve">
<path fill="#FEFEFE" opacity="1.000000" stroke="none" 
	d="
M344.000000,501.000000 
	C229.333359,501.000000 115.166718,501.000000 1.000061,501.000000 
	C1.000041,334.333405 1.000041,167.666794 1.000020,1.000151 
	C167.666565,1.000100 334.333130,1.000100 500.999756,1.000050 
	C500.999847,167.666519 500.999847,334.333038 500.999939,500.999786 
	C448.833344,501.000000 396.666656,501.000000 344.000000,501.000000 
M185.102753,234.921753 
	C189.063110,238.849335 193.597290,241.054474 199.380524,240.071198 
	C201.159958,239.768661 203.166565,239.610855 204.836716,240.131866 
	C207.443146,240.944962 208.866867,239.852356 210.893341,238.414444 
	C219.415421,232.367615 220.016144,224.144043 218.571625,214.862198 
	C217.379242,207.200378 216.759872,199.440842 216.135178,191.704529 
	C215.952484,189.441925 216.898193,187.104599 216.848511,184.811859 
	C216.688416,177.423706 216.063385,170.038544 216.119720,162.656052 
	C216.144424,159.418350 215.365036,157.264297 212.560455,155.686661 
	C208.486710,153.395096 204.499588,150.949554 200.472351,148.563171 
	C200.762680,148.412201 201.037994,148.212891 201.345535,148.117294 
	C209.363113,145.625397 217.838394,143.682816 217.719955,132.537109 
	C217.705231,131.151169 218.800980,129.777557 219.237640,128.353897 
	C219.513062,127.455925 219.898956,126.322800 219.589874,125.554977 
	C215.046875,114.269562 200.177170,112.153351 193.257065,118.920456 
	C186.217438,125.804428 184.418182,132.911240 188.769943,141.710266 
	C191.436661,147.102203 193.591522,152.550079 186.459274,156.488083 
	C186.224350,156.617783 186.067261,157.050400 186.033859,157.359116 
	C185.396057,163.252975 183.228531,169.506012 184.482910,174.972076 
	C187.200500,186.814026 183.411591,198.065491 183.381744,209.582840 
	C183.361450,217.418121 180.081345,225.296997 183.999924,233.578033 
	C184.310211,233.809769 184.620514,234.041489 185.102753,234.921753 
M347.126831,400.443359 
	C347.134857,400.661316 347.142914,400.879272 346.515411,401.389740 
	C341.097382,404.524963 335.679382,407.660217 330.261383,410.795441 
	C332.149658,411.674164 334.267731,412.178864 336.002777,411.577789 
	C340.852692,409.897614 345.482727,407.588776 350.316833,405.855133 
	C354.449921,404.372894 358.720367,403.751770 363.171478,406.257904 
	C352.800964,412.929199 349.924133,417.758820 352.396240,423.275330 
	C360.067932,409.991333 376.214539,409.684448 386.829102,400.038422 
	C389.414459,404.449951 391.664368,407.755035 393.349609,411.326569 
	C394.809479,414.420410 396.655762,414.709076 399.679382,413.863617 
	C415.073364,409.559296 430.519745,405.442322 445.947021,401.257019 
	C453.826813,399.119263 461.705078,396.975830 470.104279,394.693604 
	C467.773865,393.718201 466.182159,392.834686 464.476349,392.370972 
	C442.623718,386.430084 420.738495,380.608337 398.909241,374.583496 
	C395.962830,373.770264 394.707642,374.780701 393.444733,377.146484 
	C391.522247,380.747894 389.309601,384.194427 387.082397,387.938263 
	C383.702850,382.814728 382.876648,382.972809 379.421753,388.872284 
	C377.821411,388.872284 376.157288,388.872284 374.493134,388.872253 
	C263.182220,388.871063 151.871323,388.863342 40.560436,388.895386 
	C36.564240,388.896545 31.614033,387.747253 31.107441,394.066132 
	C30.762075,398.374023 33.238983,399.766449 40.592205,399.767090 
	C142.738174,399.776154 244.884155,399.786285 347.126831,400.443359 
M98.829514,122.592819 
	C93.804672,119.317406 88.997025,116.043007 82.260475,117.532280 
	C78.175232,118.435417 73.746574,117.915115 69.476540,117.826073 
	C59.888599,117.626137 50.295200,117.454849 40.720020,116.961426 
	C34.740078,116.653275 31.137657,120.568115 27.699163,124.195038 
	C26.548431,125.408836 27.766584,128.867523 27.899387,131.300186 
	C27.917482,131.631683 27.948120,131.965729 27.927086,132.295654 
	C27.289997,142.288071 26.504736,152.273560 26.044737,162.274017 
	C25.572575,172.538925 25.443537,182.819229 25.116341,193.091278 
	C24.776745,203.752609 23.248425,214.305542 23.208715,225.064331 
	C23.185131,231.454941 24.754992,234.227768 29.162359,237.093369 
	C31.010324,238.294861 32.774315,239.625504 34.662354,240.958038 
	C29.620722,247.418900 28.557720,254.340897 29.824520,262.207886 
	C30.756435,267.995209 30.105488,274.042450 30.082302,279.973541 
	C30.078531,280.938904 29.541048,281.893707 29.473873,282.868774 
	C29.186016,287.046997 28.818991,291.229919 28.790897,295.413208 
	C28.760080,300.001556 29.297279,304.598175 29.177183,309.180450 
	C29.004219,315.779907 28.506447,322.372742 28.054455,328.962036 
	C27.870977,331.636810 27.340046,334.287445 27.149881,336.962067 
	C26.814810,341.674805 26.609949,346.397034 26.395758,351.117371 
	C26.384912,351.356354 26.766121,351.658295 27.021891,351.857605 
	C32.080269,355.799286 35.295074,361.062256 44.009556,360.440338 
	C61.459572,359.194977 79.099373,360.723969 96.662918,360.910950 
	C107.116554,361.022278 115.706413,349.787018 114.696793,339.186249 
	C114.053917,332.436249 115.139389,325.495972 115.713455,318.663177 
	C116.249542,312.282440 117.526131,305.944244 117.742645,299.562469 
	C117.921928,294.278076 113.068893,289.376587 107.694229,288.828949 
	C104.455849,288.498962 101.140694,288.917114 97.860237,289.006409 
	C86.792473,289.307709 75.304001,287.105408 64.734863,295.623322 
	C65.201622,287.020660 65.428581,279.606873 66.181511,272.246826 
	C66.302322,271.066040 68.643562,269.567993 70.189407,269.207550 
	C72.398628,268.692383 74.821060,269.110229 77.152237,269.096008 
	C85.431412,269.045532 93.712402,269.056122 101.987732,268.846832 
	C103.361252,268.812103 104.777817,267.917267 106.058960,267.210449 
	C114.081589,262.784180 116.966125,254.621185 121.507332,245.961105 
	C115.688965,243.377411 110.398972,239.825333 104.652260,238.777100 
	C97.256187,237.428040 89.495033,237.989517 81.889168,237.904907 
	C72.561600,237.801117 63.232002,237.880157 54.112282,237.880157 
	C56.175201,235.099579 59.034458,232.841507 59.609314,230.103760 
	C60.514088,225.794785 59.848198,221.162567 59.907867,216.668015 
	C59.992886,210.264114 60.227543,203.860519 60.199013,197.457687 
	C60.188671,195.136581 60.071232,192.618851 59.183464,190.540817 
	C57.471317,186.533096 58.314671,184.353165 62.549522,184.026123 
	C68.179810,183.591309 73.820656,183.225143 79.463867,183.039886 
	C91.029839,182.660233 99.008766,176.559143 102.267906,165.218536 
	C103.592850,160.608246 104.170975,155.737518 105.890442,151.295578 
	C109.936775,140.842636 107.821457,130.724731 98.829514,122.592819 
M348.952759,206.956314 
	C348.625061,197.827713 348.303741,188.698868 347.956360,179.571014 
	C347.931427,178.915726 347.638306,178.272003 347.601776,177.615555 
	C347.347382,173.047226 346.678284,168.445312 346.997131,163.914322 
	C347.545135,156.126495 341.525116,146.600876 334.990967,146.157928 
	C328.935272,145.747406 322.855164,145.482819 316.787384,145.510025 
	C305.724365,145.559616 294.661346,145.823624 283.600525,146.089859 
	C273.145813,146.341507 262.695251,146.769852 252.240280,147.004486 
	C246.747269,147.127762 241.248230,147.042206 235.752808,146.976288 
	C231.850143,146.929489 229.378555,148.647476 227.407928,152.102875 
	C225.286377,155.822922 226.055786,159.674530 225.431534,163.427963 
	C224.620239,168.305878 226.333176,171.297318 229.104248,174.581024 
	C230.402390,176.119324 231.553802,178.106476 231.920471,180.050751 
	C233.701920,189.496857 230.841232,199.441360 234.929138,208.684830 
	C235.237427,209.381943 235.251160,210.459244 234.934769,211.144012 
	C231.780579,217.970657 234.476944,224.547806 236.181122,230.945724 
	C237.208084,234.801208 238.549606,239.522369 243.970230,240.045441 
	C253.253738,240.941254 261.868439,239.628479 268.077087,232.382141 
	C267.901276,229.037674 267.714569,225.829468 267.570007,222.619370 
	C267.466949,220.332367 267.374390,218.043152 267.356750,215.754318 
	C267.267731,204.195343 267.118042,192.635147 267.250183,181.078369 
	C267.265503,179.738571 268.895294,178.417236 269.776581,177.087341 
	C270.932800,180.346329 270.972198,183.135254 271.218079,185.905838 
	C272.445435,199.736267 273.852356,213.552200 274.923004,227.394348 
	C275.309753,232.394363 281.044434,239.471954 286.041077,240.026062 
	C294.140106,240.924225 301.075897,238.024063 307.173096,232.986877 
	C307.975708,232.323792 308.087128,230.458145 308.023193,229.174133 
	C307.713440,222.955536 306.972260,216.748505 306.897766,210.531219 
	C306.837097,205.468872 307.832092,200.393219 307.761139,195.331818 
	C307.677002,189.326981 306.952515,183.331100 306.505524,177.331345 
	C307.271606,176.995926 308.037720,176.660507 308.803802,176.325089 
	C310.518066,178.200790 313.281891,179.856491 313.730652,181.997437 
	C314.699677,186.620895 314.705688,191.493576 314.700348,196.263870 
	C314.689728,205.766678 314.385529,215.268936 314.272034,224.772263 
	C314.262726,225.553406 314.683167,226.393936 315.071777,227.116623 
	C317.354706,231.361862 319.595825,235.635269 322.073822,239.765533 
	C322.628479,240.690033 324.073456,241.626190 325.105774,241.623108 
	C329.407166,241.610260 333.707367,241.238586 338.008240,241.003006 
	C341.937317,240.787781 349.121887,232.225647 348.886230,228.377899 
	C348.740753,226.002441 349.238647,223.592865 349.355225,221.194092 
	C349.423981,219.779419 349.899780,217.812683 349.178101,217.031891 
	C346.285095,213.901978 347.651001,210.918304 348.952759,206.956314 
M436.165466,295.121033 
	C441.471039,295.353058 446.826813,296.143097 452.069153,295.671844 
	C458.235046,295.117645 465.868195,295.999420 468.152649,287.900513 
	C469.532990,283.006897 471.462341,276.758972 469.581848,272.821198 
	C466.995178,267.404663 461.754822,262.322662 453.905121,263.971069 
	C452.306091,264.306885 450.584930,264.043121 448.921112,264.091583 
	C439.365814,264.369843 429.811859,264.701019 420.255371,264.927673 
	C414.985260,265.052673 409.419281,263.978577 404.530548,265.364105 
	C400.574493,266.485291 395.807556,269.762817 394.242065,273.330719 
	C390.081116,282.813873 390.155426,293.344696 390.110321,303.606812 
	C390.093903,307.351196 392.476624,311.376740 391.678314,314.785309 
	C390.392975,320.273102 392.835083,322.859131 396.730438,325.266663 
	C399.164307,326.770935 401.622406,328.235992 403.576630,329.419952 
	C402.330963,330.247070 400.505005,330.870911 399.630646,332.146851 
	C396.614288,336.548523 394.505310,341.144836 394.887726,346.922485 
	C395.392395,354.546051 402.559570,362.102539 410.394104,361.928375 
	C416.030090,361.803070 421.660828,361.113068 427.291321,361.143982 
	C437.426025,361.199646 447.581207,361.285400 457.684113,361.987610 
	C463.804291,362.412964 468.116577,359.854858 472.355896,356.094238 
	C475.109528,353.651581 477.109222,351.559418 474.097168,347.900055 
	C473.284332,346.912506 473.030212,345.028900 473.263733,343.685974 
	C474.995575,333.725494 473.725739,323.995850 471.195831,314.374756 
	C468.967682,305.901062 465.016663,303.087494 456.406555,302.956055 
	C446.617218,302.806671 436.815643,302.631348 427.058990,301.922424 
	C425.297577,301.794434 423.727325,299.035767 422.068817,297.491608 
	C423.624359,296.657898 425.112396,295.323181 426.750519,295.102539 
	C429.526184,294.728607 432.396576,295.058136 436.165466,295.121033 
M266.137756,347.038940 
	C266.953735,349.039520 267.626312,351.113800 268.609985,353.028229 
	C273.507690,362.560333 287.536621,364.555450 295.239075,357.170227 
	C299.070129,353.496948 299.534973,349.156738 299.265198,344.454041 
	C299.009766,340.001282 298.133545,335.555756 298.209961,331.118744 
	C298.336639,323.760803 299.398315,316.409729 299.351288,309.060333 
	C299.292511,299.876892 298.691864,290.683014 297.927643,281.526794 
	C297.704376,278.851868 296.853394,275.480621 295.024475,273.836273 
	C290.496307,269.765137 285.541656,265.843109 278.812836,266.052582 
	C269.360748,266.346771 259.910797,266.736755 250.456772,266.933411 
	C243.750656,267.072845 237.039322,266.960419 230.118942,266.960419 
	C230.397675,263.679413 230.619110,261.073059 230.939072,257.306824 
	C225.817719,261.831940 221.995865,265.799408 217.593155,268.957031 
	C211.390259,273.405701 210.983383,279.355713 212.585968,285.726959 
	C213.361969,288.811951 215.654465,291.485199 216.936157,294.483429 
	C217.876541,296.683289 218.540833,299.073730 218.869431,301.442902 
	C219.225479,304.009735 218.951431,306.657043 219.128540,309.257263 
	C219.392227,313.129181 219.949158,316.984375 220.121552,320.858276 
	C220.273224,324.266724 219.669968,327.743073 220.107819,331.097046 
	C220.903137,337.189392 221.570389,343.435577 223.530548,349.195770 
	C225.123352,353.876373 228.103745,358.316284 231.396393,362.043427 
	C232.362137,363.136597 236.498184,361.427917 239.181793,361.007141 
	C239.345367,360.981476 239.514877,360.996399 239.680298,360.979401 
	C246.670212,360.261230 251.801147,355.058472 253.223053,348.232208 
	C254.462311,342.282745 254.728073,336.579346 253.214752,330.609283 
	C252.421722,327.480774 252.852982,323.979523 253.072906,320.669281 
	C253.566345,313.242401 254.273209,305.829712 254.898911,298.342743 
	C256.299011,298.021149 257.920959,297.305725 259.494202,297.400269 
	C260.664581,297.470581 262.539825,298.387390 262.775024,299.277557 
	C263.818542,303.227234 264.685638,307.275970 265.054047,311.339844 
	C265.675751,318.198090 265.992889,325.091248 266.205231,331.976868 
	C266.351410,336.717407 266.104370,341.470123 266.137756,347.038940 
M132.349991,360.822083 
	C148.805145,361.196625 165.274078,361.287415 181.708679,362.085388 
	C188.281067,362.404480 193.670395,361.054382 198.552460,356.669586 
	C201.376083,354.133575 204.262070,352.141205 202.132217,347.589905 
	C201.579636,346.409088 202.698792,344.482758 202.936798,342.881989 
	C203.090683,341.847229 203.500244,340.237793 203.004837,339.817444 
	C199.492462,336.837250 196.119919,332.516418 192.048355,331.630463 
	C184.878799,330.070343 177.243561,330.626434 169.801102,330.357269 
	C167.146805,330.261261 164.486115,330.341858 161.828323,330.341858 
	C161.829803,329.920593 161.831284,329.499329 161.832764,329.078064 
	C167.907944,328.708252 173.980347,328.282166 180.058975,327.982300 
	C188.283508,327.576630 195.482727,324.987518 199.490616,317.351562 
	C201.462677,313.594391 202.708847,309.256775 203.343719,305.040314 
	C204.529053,297.167999 205.572922,289.196686 205.635773,281.258362 
	C205.683502,275.228638 195.447144,266.963593 189.061295,267.035583 
	C183.429184,267.099030 177.783875,267.977112 172.175522,267.744751 
	C161.081589,267.285065 150.010513,266.285339 138.925262,265.583344 
	C138.035690,265.527008 136.687286,265.747833 136.268753,266.343414 
	C133.358643,270.484833 129.488159,274.429382 128.154510,279.076691 
	C126.570915,284.594910 128.920700,291.589264 126.530724,296.452209 
	C122.303413,305.053467 127.411682,313.686188 124.285492,322.114044 
	C122.654251,326.511688 123.224060,331.808899 123.200706,336.701752 
	C123.158195,345.606598 123.699211,354.412811 132.349991,360.822083 
M369.301697,330.981598 
	C360.131744,330.681488 350.961823,330.381409 341.791870,330.081329 
	C348.101379,328.612000 354.436096,328.675812 360.634399,327.787506 
	C364.752808,327.197266 368.849548,325.614716 372.650452,323.826813 
	C380.350250,320.204834 380.115265,311.840698 382.861664,305.330719 
	C385.373138,299.377533 383.942291,292.982330 384.264618,286.769135 
	C384.870117,275.096832 378.250031,266.966675 366.415771,267.053711 
	C361.619385,267.088989 356.808350,268.025269 352.035767,267.818329 
	C340.770782,267.329926 329.527283,266.360321 318.267700,265.714355 
	C317.144867,265.649902 315.632050,266.144958 314.874756,266.932678 
	C308.749634,273.303986 305.335846,280.722076 305.919098,289.837921 
	C306.137451,293.250824 305.306091,296.720856 305.099731,300.173615 
	C304.876038,303.915985 304.782654,307.667786 304.713043,311.417023 
	C304.679413,313.229492 304.982880,315.054840 304.871948,316.858215 
	C304.307617,326.032043 302.858002,335.233337 303.231079,344.363159 
	C303.748993,357.037170 308.713959,360.893433 321.118744,361.017517 
	C334.209320,361.148438 347.370911,360.864655 360.360107,362.169525 
	C369.467072,363.084351 376.332733,359.576324 381.197174,353.430939 
	C383.562836,350.442291 383.517975,343.428650 381.619293,339.762146 
	C379.622589,335.906342 374.107758,333.872345 369.301697,330.981598 
M356.996277,155.935760 
	C356.913483,158.095032 356.984497,160.273361 356.719757,162.410080 
	C355.848541,169.442139 361.024139,177.859375 370.283447,176.930771 
	C379.088531,176.047684 388.020782,176.430252 396.897644,176.291611 
	C396.978149,176.290344 397.066223,176.773178 397.188660,177.145264 
	C391.374908,178.091492 385.605804,179.550354 379.775116,179.863785 
	C369.754303,180.402466 363.374908,186.402039 357.541901,193.431213 
	C356.712860,194.430237 356.655182,196.151688 356.451721,197.569107 
	C356.108398,199.961395 356.632843,202.759018 355.565155,204.716934 
	C351.406342,212.343185 353.515869,219.954834 355.081848,227.528625 
	C356.482758,234.303894 361.510864,238.279282 367.784760,239.489899 
	C374.176270,240.723206 380.863922,240.561188 387.428925,240.721329 
	C395.647644,240.921814 403.904266,240.391388 412.088806,240.967941 
	C423.107086,241.744080 432.183228,234.766754 432.080566,224.885590 
	C431.997711,216.912109 431.781769,208.930084 432.058990,200.966980 
	C432.195831,197.037064 433.798889,193.153122 433.894226,189.227859 
	C434.155182,178.485489 434.040009,167.731537 433.929504,156.983643 
	C433.871094,151.306061 429.826752,146.363647 425.129242,146.117508 
	C417.338867,145.709290 409.539612,145.203613 401.744751,145.214966 
	C391.186584,145.230347 380.617554,145.481583 370.075745,146.050049 
	C364.116333,146.371399 359.828857,149.858444 356.996277,155.935760 
M179.160019,173.696625 
	C178.828964,170.476974 178.129181,167.244537 178.240158,164.040192 
	C178.508530,156.291016 171.159409,148.363998 163.344238,148.040955 
	C150.322891,147.502716 137.311691,146.721954 124.291519,146.150162 
	C122.029388,146.050812 119.310562,145.751785 117.552551,146.801193 
	C112.690285,149.703644 110.205849,158.168793 111.170815,164.132111 
	C111.837006,168.248947 111.567551,172.517227 111.715431,176.717865 
	C111.859337,180.805954 111.765686,184.919647 112.203926,188.975891 
	C112.784767,194.351959 114.352226,199.672455 114.452614,205.036362 
	C114.575470,211.600800 113.164192,218.190292 113.234169,224.760239 
	C113.341980,234.882736 120.169159,240.462555 130.116364,241.232239 
	C137.832214,241.829254 141.641312,236.997818 145.876312,232.475128 
	C146.956207,231.321884 146.879822,228.814041 146.831848,226.941437 
	C146.763199,224.261459 145.729248,221.539581 146.008057,218.931885 
	C146.515930,214.181961 149.527863,209.437378 145.222717,204.920731 
	C144.802979,204.480392 144.980835,203.276688 145.159180,202.490356 
	C146.743484,195.504852 148.162613,188.552750 145.974594,181.381012 
	C145.714691,180.529114 146.903519,179.235199 147.420807,178.146164 
	C148.290878,178.952484 149.637283,179.605408 149.954300,180.589828 
	C152.139709,187.376328 161.855072,191.800827 168.291428,188.729950 
	C174.330933,185.848404 177.122955,180.488235 179.160019,173.696625 
M440.997070,185.762848 
	C441.859100,192.198639 441.984344,198.541000 439.416016,204.731735 
	C439.010315,205.709732 439.836487,207.175537 440.020569,208.426498 
	C440.360901,210.739029 440.841705,213.053223 440.916565,215.377914 
	C441.079956,220.451767 440.191345,225.734192 441.352509,230.539993 
	C442.130157,233.758667 445.248291,238.133118 448.087067,238.820892 
	C457.957642,241.212341 468.128296,242.210129 476.738495,234.467087 
	C478.841064,232.576248 480.469910,230.968033 479.448547,227.706207 
	C478.518311,224.735306 477.929962,221.536148 477.890533,218.428726 
	C477.731171,205.863968 477.849182,193.295746 477.832306,180.728867 
	C477.831451,180.096375 477.723511,179.282211 477.332947,178.860764 
	C474.135315,175.410233 475.277100,171.596283 475.858307,167.585968 
	C476.312378,164.452789 475.703949,161.147736 475.428070,157.931015 
	C475.046997,153.487915 473.371796,148.781036 474.341461,144.681610 
	C475.938141,137.931046 473.682098,132.158051 471.807800,126.252251 
	C469.785858,119.881233 465.051147,117.293915 458.191437,116.811607 
	C450.820923,116.293396 447.262817,121.220947 444.654816,125.903412 
	C442.596985,129.598129 443.285706,134.941086 443.153839,139.563385 
	C442.932892,147.308548 443.170807,155.067169 442.928375,162.811142 
	C442.821869,166.213989 440.935059,169.893173 441.774109,172.914337 
	C442.977417,177.247040 443.034119,181.002487 440.997070,185.762848 
z"/>
<path fill="#090909" opacity="1.000000" stroke="none" 
	d="
M347.030121,399.796143 
	C244.884155,399.786285 142.738174,399.776154 40.592205,399.767090 
	C33.238983,399.766449 30.762075,398.374023 31.107441,394.066132 
	C31.614033,387.747253 36.564240,388.896545 40.560436,388.895386 
	C151.871323,388.863342 263.182220,388.871063 374.493134,388.872253 
	C376.157288,388.872284 377.821411,388.872284 379.421753,388.872284 
	C382.876648,382.972809 383.702850,382.814728 387.082397,387.938263 
	C389.309601,384.194427 391.522247,380.747894 393.444733,377.146484 
	C394.707642,374.780701 395.962830,373.770264 398.909241,374.583496 
	C420.738495,380.608337 442.623718,386.430084 464.476349,392.370972 
	C466.182159,392.834686 467.773865,393.718201 470.104279,394.693604 
	C461.705078,396.975830 453.826813,399.119263 445.947021,401.257019 
	C430.519745,405.442322 415.073364,409.559296 399.679382,413.863617 
	C396.655762,414.709076 394.809479,414.420410 393.349609,411.326569 
	C391.664368,407.755035 389.414459,404.449951 386.829102,400.038422 
	C376.214539,409.684448 360.067932,409.991333 352.396240,423.275330 
	C349.924133,417.758820 352.800964,412.929199 363.171478,406.257904 
	C358.720367,403.751770 354.449921,404.372894 350.316833,405.855133 
	C345.482727,407.588776 340.852692,409.897614 336.002777,411.577789 
	C334.267731,412.178864 332.149658,411.674164 330.261383,410.795441 
	C335.679382,407.660217 341.097382,404.524963 347.151428,401.286926 
	C348.149780,400.758362 348.512115,400.332672 348.874451,399.906982 
	C348.259644,399.870026 347.644897,399.833069 347.030121,399.796143 
M405.542236,394.216492 
	C401.829407,394.216492 398.116577,394.216492 393.562805,394.216492 
	C395.496033,397.842316 397.090179,400.365601 398.226990,403.080322 
	C399.705627,406.611450 401.666931,407.478394 405.533569,406.401154 
	C418.649658,402.746918 431.890472,399.540833 445.077881,396.141144 
	C446.232880,395.843384 447.345734,395.381989 448.478149,394.996613 
	C448.420776,394.736603 448.363403,394.476562 448.306030,394.216553 
	C434.379974,394.216553 420.453888,394.216553 405.542236,394.216492 
z"/>
<path fill="#BCBCBC" opacity="1.000000" stroke="none" 
	d="
M99.115105,122.813538 
	C107.821457,130.724731 109.936775,140.842636 105.890442,151.295578 
	C104.170975,155.737518 103.592850,160.608246 102.267906,165.218536 
	C99.008766,176.559143 91.029839,182.660233 79.463867,183.039886 
	C73.820656,183.225143 68.179810,183.591309 62.549522,184.026123 
	C58.314671,184.353165 57.471317,186.533096 59.183464,190.540817 
	C60.071232,192.618851 60.188671,195.136581 60.199013,197.457687 
	C60.227543,203.860519 59.992886,210.264114 59.907867,216.668015 
	C59.848198,221.162567 60.514088,225.794785 59.609314,230.103760 
	C59.034458,232.841507 56.175201,235.099579 54.112282,237.880157 
	C63.232002,237.880157 72.561600,237.801117 81.889168,237.904907 
	C89.495033,237.989517 97.256187,237.428040 104.652260,238.777100 
	C110.398972,239.825333 115.688965,243.377411 121.507332,245.961105 
	C116.966125,254.621185 114.081589,262.784180 106.058960,267.210449 
	C104.777817,267.917267 103.361252,268.812103 101.987732,268.846832 
	C93.712402,269.056122 85.431412,269.045532 77.152237,269.096008 
	C74.821060,269.110229 72.398628,268.692383 70.189407,269.207550 
	C68.643562,269.567993 66.302322,271.066040 66.181511,272.246826 
	C65.428581,279.606873 65.201622,287.020660 64.734863,295.623322 
	C75.304001,287.105408 86.792473,289.307709 97.860237,289.006409 
	C101.140694,288.917114 104.455849,288.498962 107.694229,288.828949 
	C113.068893,289.376587 117.921928,294.278076 117.742645,299.562469 
	C117.526131,305.944244 116.249542,312.282440 115.713455,318.663177 
	C115.139389,325.495972 114.053917,332.436249 114.696793,339.186249 
	C115.706413,349.787018 107.116554,361.022278 96.662918,360.910950 
	C79.099373,360.723969 61.459572,359.194977 44.009556,360.440338 
	C35.295074,361.062256 32.080269,355.799286 27.021891,351.857605 
	C26.766121,351.658295 26.384912,351.356354 26.395758,351.117371 
	C26.609949,346.397034 26.814810,341.674805 27.149881,336.962067 
	C27.340046,334.287445 27.870977,331.636810 28.054455,328.962036 
	C28.506447,322.372742 29.004219,315.779907 29.177183,309.180450 
	C29.297279,304.598175 28.760080,300.001556 28.790897,295.413208 
	C28.818991,291.229919 29.186016,287.046997 29.473873,282.868774 
	C29.541048,281.893707 30.078531,280.938904 30.082302,279.973541 
	C30.105488,274.042450 30.756435,267.995209 29.824520,262.207886 
	C28.557720,254.340897 29.620722,247.418900 34.662354,240.958038 
	C32.774315,239.625504 31.010324,238.294861 29.162359,237.093369 
	C24.754992,234.227768 23.185131,231.454941 23.208715,225.064331 
	C23.248425,214.305542 24.776745,203.752609 25.116341,193.091278 
	C25.443537,182.819229 25.572575,172.538925 26.044737,162.274017 
	C26.504736,152.273560 27.289997,142.288071 27.927086,132.295654 
	C27.948120,131.965729 27.917482,131.631683 27.899387,131.300186 
	C27.766584,128.867523 26.548431,125.408836 27.699163,124.195038 
	C31.137657,120.568115 34.740078,116.653275 40.720020,116.961426 
	C50.295200,117.454849 59.888599,117.626137 69.476540,117.826073 
	C73.746574,117.915115 78.175232,118.435417 82.260475,117.532280 
	C88.997025,116.043007 93.804672,119.317406 99.115105,122.813538 
M73.139946,263.763641 
	C79.629723,263.812866 86.138664,264.186523 92.602966,263.804626 
	C97.435417,263.519104 102.853615,263.874451 106.326492,259.438751 
	C108.653122,256.467072 110.426483,253.062225 112.790176,249.306580 
	C109.684990,247.747650 107.150764,245.566467 104.416855,245.278046 
	C97.045723,244.500381 89.591583,244.373718 82.166550,244.273605 
	C69.977875,244.109283 57.768948,244.535828 45.603825,243.963623 
	C40.412804,243.719482 37.054096,245.217667 35.694569,249.864731 
	C34.752544,253.084656 34.889179,256.658630 34.805336,260.080811 
	C34.713364,263.834930 34.684326,267.619843 35.052780,271.349365 
	C35.656109,277.456238 36.128723,283.454132 33.044254,289.147217 
	C32.628334,289.914948 32.717865,291.231018 33.065620,292.095062 
	C36.197300,299.876221 34.893414,307.689026 33.640469,315.582520 
	C33.280518,317.850250 34.213589,320.293335 34.220135,322.656952 
	C34.227524,325.325012 33.354786,328.073090 33.758064,330.646362 
	C34.605675,336.054962 32.335129,341.159393 33.278572,346.802368 
	C34.080532,351.599152 35.362980,355.076782 40.505901,354.684784 
	C43.310005,354.471039 46.146767,354.666962 48.968430,354.705353 
	C64.717461,354.919708 80.467072,355.103394 96.214935,355.385071 
	C101.197479,355.474213 103.106987,352.422272 105.236786,348.446472 
	C109.453423,340.575104 105.075951,331.740417 108.719566,323.881836 
	C109.433128,322.342804 107.756897,319.531799 108.605583,318.247742 
	C112.306618,312.648102 110.797752,306.570496 110.643318,300.715027 
	C110.559586,297.540619 108.757637,294.597717 104.587753,295.067871 
	C101.971756,295.362823 99.376450,295.994110 96.758194,296.086273 
	C89.872955,296.328461 82.966049,296.124268 76.094650,296.541046 
	C69.685135,296.929840 64.444275,306.118195 67.091881,311.855530 
	C69.167206,316.352631 72.882668,316.535858 77.155403,315.818359 
	C79.448425,315.433319 82.570168,314.859528 84.104668,316.001373 
	C89.650177,320.127960 87.209572,334.374023 80.819504,336.955292 
	C80.384750,337.130920 79.839447,337.049194 79.345039,337.058197 
	C74.057472,337.154358 68.615456,338.031860 63.540966,337.036774 
	C60.572205,336.454620 56.550629,333.273102 55.904819,330.568085 
	C54.764301,325.790955 56.102139,320.476013 55.940220,315.400970 
	C55.486866,301.191345 60.112465,287.231689 57.950779,272.945221 
	C57.865379,272.380829 58.403496,271.720001 58.657471,271.106720 
	C60.910839,265.665314 65.828796,262.941925 73.139946,263.763641 
M32.994061,146.451431 
	C33.051342,150.395660 33.430222,154.366852 33.102322,158.278793 
	C32.294392,167.917587 30.914095,177.511765 30.236570,187.157074 
	C29.673769,195.169205 30.525261,203.340897 29.330406,211.226761 
	C28.560890,216.305481 29.955084,221.175125 29.311361,225.740906 
	C28.662006,230.346634 30.792683,232.977386 33.389301,233.312759 
	C38.682850,233.996460 44.469765,233.892761 49.533348,232.376572 
	C53.674820,231.136505 54.894150,222.413651 53.126083,217.364639 
	C52.483868,215.530655 52.847721,213.350540 52.715084,211.330811 
	C52.262470,204.438812 54.987186,197.528427 51.966244,190.592697 
	C49.825619,185.678085 54.285305,179.123520 59.756672,178.665680 
	C65.893303,178.152176 72.058556,177.753525 78.212296,177.740250 
	C83.577911,177.728653 88.214851,176.105698 91.298866,171.870956 
	C93.649200,168.643661 95.827377,164.864105 96.629143,161.026657 
	C98.196114,153.526627 101.925415,146.459305 101.017609,138.407776 
	C100.290207,131.956299 92.768112,123.857948 86.361473,123.659874 
	C75.646935,123.328598 64.925697,123.147141 54.206116,123.074829 
	C49.223621,123.041222 44.156269,122.945145 39.290081,123.801712 
	C36.959572,124.211929 33.439381,126.551697 33.177895,128.401962 
	C32.387680,133.993576 32.928905,139.773346 32.994061,146.451431 
M81.571289,326.138672 
	C83.392242,322.129028 82.553848,320.319122 78.848190,321.119751 
	C72.496750,322.492035 67.271873,321.302734 62.785835,314.619080 
	C63.156147,320.730530 63.439117,325.400574 63.722088,330.070618 
	C67.747841,330.050110 71.814476,330.358551 75.781494,329.865540 
	C77.668320,329.631073 79.365402,327.869812 81.571289,326.138672 
z"/>
<path fill="#BCBCBC" opacity="1.000000" stroke="none" 
	d="
M348.901276,207.385132 
	C347.651001,210.918304 346.285095,213.901978 349.178101,217.031891 
	C349.899780,217.812683 349.423981,219.779419 349.355225,221.194092 
	C349.238647,223.592865 348.740753,226.002441 348.886230,228.377899 
	C349.121887,232.225647 341.937317,240.787781 338.008240,241.003006 
	C333.707367,241.238586 329.407166,241.610260 325.105774,241.623108 
	C324.073456,241.626190 322.628479,240.690033 322.073822,239.765533 
	C319.595825,235.635269 317.354706,231.361862 315.071777,227.116623 
	C314.683167,226.393936 314.262726,225.553406 314.272034,224.772263 
	C314.385529,215.268936 314.689728,205.766678 314.700348,196.263870 
	C314.705688,191.493576 314.699677,186.620895 313.730652,181.997437 
	C313.281891,179.856491 310.518066,178.200790 308.803802,176.325089 
	C308.037720,176.660507 307.271606,176.995926 306.505524,177.331345 
	C306.952515,183.331100 307.677002,189.326981 307.761139,195.331818 
	C307.832092,200.393219 306.837097,205.468872 306.897766,210.531219 
	C306.972260,216.748505 307.713440,222.955536 308.023193,229.174133 
	C308.087128,230.458145 307.975708,232.323792 307.173096,232.986877 
	C301.075897,238.024063 294.140106,240.924225 286.041077,240.026062 
	C281.044434,239.471954 275.309753,232.394363 274.923004,227.394348 
	C273.852356,213.552200 272.445435,199.736267 271.218079,185.905838 
	C270.972198,183.135254 270.932800,180.346329 269.776581,177.087341 
	C268.895294,178.417236 267.265503,179.738571 267.250183,181.078369 
	C267.118042,192.635147 267.267731,204.195343 267.356750,215.754318 
	C267.374390,218.043152 267.466949,220.332367 267.570007,222.619370 
	C267.714569,225.829468 267.901276,229.037674 268.077087,232.382141 
	C261.868439,239.628479 253.253738,240.941254 243.970230,240.045441 
	C238.549606,239.522369 237.208084,234.801208 236.181122,230.945724 
	C234.476944,224.547806 231.780579,217.970657 234.934769,211.144012 
	C235.251160,210.459244 235.237427,209.381943 234.929138,208.684830 
	C230.841232,199.441360 233.701920,189.496857 231.920471,180.050751 
	C231.553802,178.106476 230.402390,176.119324 229.104248,174.581024 
	C226.333176,171.297318 224.620239,168.305878 225.431534,163.427963 
	C226.055786,159.674530 225.286377,155.822922 227.407928,152.102875 
	C229.378555,148.647476 231.850143,146.929489 235.752808,146.976288 
	C241.248230,147.042206 246.747269,147.127762 252.240280,147.004486 
	C262.695251,146.769852 273.145813,146.341507 283.600525,146.089859 
	C294.661346,145.823624 305.724365,145.559616 316.787384,145.510025 
	C322.855164,145.482819 328.935272,145.747406 334.990967,146.157928 
	C341.525116,146.600876 347.545135,156.126495 346.997131,163.914322 
	C346.678284,168.445312 347.347382,173.047226 347.601776,177.615555 
	C347.638306,178.272003 347.931427,178.915726 347.956360,179.571014 
	C348.303741,188.698868 348.625061,197.827713 348.901276,207.385132 
M319.351044,180.419647 
	C319.883789,192.455826 321.845734,204.659027 320.465118,216.471573 
	C319.485168,224.856033 323.485748,229.770325 326.387726,235.781540 
	C330.638306,235.319641 334.581543,235.514450 338.049133,234.323868 
	C341.005341,233.308914 344.351044,221.318787 342.381439,218.832611 
	C339.262360,214.895523 341.361633,211.533875 341.965149,207.685760 
	C342.691345,203.055420 342.342743,198.236221 342.240692,193.503510 
	C342.174744,190.443863 341.672272,187.395782 341.455505,184.336151 
	C341.364563,183.052429 341.596222,181.747406 341.527252,180.460312 
	C341.219971,174.726059 340.545105,168.991165 340.611542,163.263565 
	C340.665863,158.579178 337.493683,153.309860 333.283295,152.977753 
	C328.005493,152.561447 322.701782,152.271530 317.409760,152.278763 
	C306.522217,152.293655 295.635101,152.554352 284.747498,152.686844 
	C281.749420,152.723328 278.749634,152.621857 275.751495,152.656128 
	C263.014435,152.801743 250.276733,152.928757 237.542099,153.197723 
	C236.015671,153.229965 234.142960,153.679764 233.062897,154.644058 
	C230.568420,156.871140 229.822067,167.242477 232.289230,169.511551 
	C236.630859,173.504562 237.398087,178.076019 237.977524,183.792603 
	C238.810043,192.006165 237.407272,200.553055 240.697144,208.505264 
	C240.999619,209.236389 241.183365,210.288345 240.887177,210.952820 
	C238.271011,216.822296 239.839615,222.652725 241.275009,228.337753 
	C241.852005,230.623047 244.006348,234.356796 245.291046,234.294632 
	C250.640350,234.035858 256.884460,235.983093 260.212128,231.083359 
	C260.429199,227.682617 260.655090,225.185806 260.729248,222.684494 
	C260.801361,220.253113 260.898682,217.799179 260.659454,215.387436 
	C260.320404,211.969284 259.156677,208.561966 259.277252,205.183273 
	C259.572998,196.894669 260.407745,188.625549 261.014648,180.347763 
	C261.477722,174.031662 266.665680,169.598175 272.600555,171.359909 
	C274.688141,171.979599 277.184448,175.093460 277.440582,177.306198 
	C278.303833,184.762955 278.250763,192.326324 278.534393,199.849426 
	C278.699982,204.240891 278.712219,208.642441 279.025970,213.022797 
	C279.344696,217.472626 279.777710,221.930466 280.507751,226.327164 
	C280.825836,228.242783 281.548431,230.508514 282.887054,231.759338 
	C286.944336,235.550507 293.525360,235.393494 298.665710,231.422821 
	C299.860870,230.499634 300.663483,228.291763 300.624268,226.700211 
	C300.526733,222.744888 299.474152,218.805191 299.462555,214.857285 
	C299.435730,205.709534 303.103241,196.519836 298.954773,187.395126 
	C298.580292,186.571548 299.556610,185.216309 299.622650,184.091354 
	C299.730652,182.251007 299.931641,180.318268 299.508209,178.565918 
	C298.742676,175.397583 300.427917,171.624939 303.243408,171.052902 
	C311.175354,169.441330 315.930481,172.023010 319.351044,180.419647 
z"/>
<path fill="#BDBDBD" opacity="1.000000" stroke="none" 
	d="
M435.696320,295.106506 
	C432.396576,295.058136 429.526184,294.728607 426.750519,295.102539 
	C425.112396,295.323181 423.624359,296.657898 422.068817,297.491608 
	C423.727325,299.035767 425.297577,301.794434 427.058990,301.922424 
	C436.815643,302.631348 446.617218,302.806671 456.406555,302.956055 
	C465.016663,303.087494 468.967682,305.901062 471.195831,314.374756 
	C473.725739,323.995850 474.995575,333.725494 473.263733,343.685974 
	C473.030212,345.028900 473.284332,346.912506 474.097168,347.900055 
	C477.109222,351.559418 475.109528,353.651581 472.355896,356.094238 
	C468.116577,359.854858 463.804291,362.412964 457.684113,361.987610 
	C447.581207,361.285400 437.426025,361.199646 427.291321,361.143982 
	C421.660828,361.113068 416.030090,361.803070 410.394104,361.928375 
	C402.559570,362.102539 395.392395,354.546051 394.887726,346.922485 
	C394.505310,341.144836 396.614288,336.548523 399.630646,332.146851 
	C400.505005,330.870911 402.330963,330.247070 403.576630,329.419952 
	C401.622406,328.235992 399.164307,326.770935 396.730438,325.266663 
	C392.835083,322.859131 390.392975,320.273102 391.678314,314.785309 
	C392.476624,311.376740 390.093903,307.351196 390.110321,303.606812 
	C390.155426,293.344696 390.081116,282.813873 394.242065,273.330719 
	C395.807556,269.762817 400.574493,266.485291 404.530548,265.364105 
	C409.419281,263.978577 414.985260,265.052673 420.255371,264.927673 
	C429.811859,264.701019 439.365814,264.369843 448.921112,264.091583 
	C450.584930,264.043121 452.306091,264.306885 453.905121,263.971069 
	C461.754822,262.322662 466.995178,267.404663 469.581848,272.821198 
	C471.462341,276.758972 469.532990,283.006897 468.152649,287.900513 
	C465.868195,295.999420 458.235046,295.117645 452.069153,295.671844 
	C446.826813,296.143097 441.471039,295.353058 435.696320,295.106506 
M402.688080,339.110016 
	C398.582062,346.853912 402.505280,356.484039 409.967529,356.484375 
	C426.097595,356.485077 442.228516,356.061340 458.357117,356.154724 
	C462.807465,356.180511 466.005707,354.828400 467.633606,352.492889 
	C467.633606,348.060944 467.868713,344.888641 467.589264,341.762390 
	C466.771057,332.608948 466.155090,323.398956 464.497406,314.388153 
	C464.118439,312.328308 459.947327,309.684509 457.388519,309.531342 
	C446.832184,308.899384 436.224792,309.103149 425.635925,309.040314 
	C421.494202,309.015747 417.193542,304.946564 415.282043,299.294739 
	C413.761414,294.798676 416.952728,292.749268 419.893707,291.057861 
	C421.750275,289.990112 424.290924,289.782349 426.529205,289.764923 
	C436.187134,289.689819 445.846710,289.857605 455.505768,289.871826 
	C459.105499,289.877136 462.554688,288.654541 462.956085,284.805420 
	C463.380188,280.738647 466.307159,275.645905 460.916779,272.732849 
	C458.496552,271.424896 455.401550,270.861328 452.608551,270.848236 
	C446.006958,270.817291 439.405151,271.468811 432.799255,271.567566 
	C424.018433,271.698822 415.211853,271.219330 406.464691,271.770203 
	C403.998047,271.925537 400.469818,274.275543 399.586761,276.482574 
	C397.852448,280.817200 397.373901,285.728882 396.844818,290.454285 
	C395.976105,298.212616 395.916687,305.849396 397.424561,313.737488 
	C398.263245,318.125000 398.982086,321.385773 403.010925,322.968781 
	C405.726654,324.035828 408.768738,324.544281 411.701233,324.730927 
	C417.797699,325.118988 423.950043,324.801788 430.019226,325.392700 
	C435.011169,325.878723 440.957397,325.295410 442.821472,332.080688 
	C439.611420,337.113922 439.611389,337.184052 433.955292,337.181702 
	C425.313110,337.178131 416.670380,336.994720 408.029297,337.063599 
	C406.384796,337.076660 404.746796,337.905884 402.688080,339.110016 
z"/>
<path fill="#BDBDBD" opacity="1.000000" stroke="none" 
	d="
M266.085419,346.628174 
	C266.104370,341.470123 266.351410,336.717407 266.205231,331.976868 
	C265.992889,325.091248 265.675751,318.198090 265.054047,311.339844 
	C264.685638,307.275970 263.818542,303.227234 262.775024,299.277557 
	C262.539825,298.387390 260.664581,297.470581 259.494202,297.400269 
	C257.920959,297.305725 256.299011,298.021149 254.898911,298.342743 
	C254.273209,305.829712 253.566345,313.242401 253.072906,320.669281 
	C252.852982,323.979523 252.421722,327.480774 253.214752,330.609283 
	C254.728073,336.579346 254.462311,342.282745 253.223053,348.232208 
	C251.801147,355.058472 246.670212,360.261230 239.680298,360.979401 
	C239.514877,360.996399 239.345367,360.981476 239.181793,361.007141 
	C236.498184,361.427917 232.362137,363.136597 231.396393,362.043427 
	C228.103745,358.316284 225.123352,353.876373 223.530548,349.195770 
	C221.570389,343.435577 220.903137,337.189392 220.107819,331.097046 
	C219.669968,327.743073 220.273224,324.266724 220.121552,320.858276 
	C219.949158,316.984375 219.392227,313.129181 219.128540,309.257263 
	C218.951431,306.657043 219.225479,304.009735 218.869431,301.442902 
	C218.540833,299.073730 217.876541,296.683289 216.936157,294.483429 
	C215.654465,291.485199 213.361969,288.811951 212.585968,285.726959 
	C210.983383,279.355713 211.390259,273.405701 217.593155,268.957031 
	C221.995865,265.799408 225.817719,261.831940 230.939072,257.306824 
	C230.619110,261.073059 230.397675,263.679413 230.118942,266.960419 
	C237.039322,266.960419 243.750656,267.072845 250.456772,266.933411 
	C259.910797,266.736755 269.360748,266.346771 278.812836,266.052582 
	C285.541656,265.843109 290.496307,269.765137 295.024475,273.836273 
	C296.853394,275.480621 297.704376,278.851868 297.927643,281.526794 
	C298.691864,290.683014 299.292511,299.876892 299.351288,309.060333 
	C299.398315,316.409729 298.336639,323.760803 298.209961,331.118744 
	C298.133545,335.555756 299.009766,340.001282 299.265198,344.454041 
	C299.534973,349.156738 299.070129,353.496948 295.239075,357.170227 
	C287.536621,364.555450 273.507690,362.560333 268.609985,353.028229 
	C267.626312,351.113800 266.953735,349.039520 266.085419,346.628174 
M279.960022,272.941650 
	C272.676544,273.229462 265.393707,273.731262 258.109406,273.754303 
	C247.526779,273.787750 236.942978,273.383362 226.359863,273.391876 
	C224.327026,273.393524 222.044968,274.028900 220.313492,275.085663 
	C216.437027,277.451569 216.089401,283.896576 219.248230,288.827484 
	C220.940521,291.469177 223.728317,293.960571 224.116013,296.781677 
	C225.222198,304.830994 225.423996,313.010925 225.831207,321.146973 
	C226.000031,324.519867 225.407745,327.960144 225.831207,331.284485 
	C226.557724,336.987946 227.503296,342.705475 228.969559,348.255219 
	C229.716751,351.083405 231.352753,355.255127 233.380188,355.785095 
	C236.200165,356.522217 240.313202,355.188202 242.898575,353.361725 
	C248.677856,349.278961 247.634476,342.651794 247.393433,336.643188 
	C247.248734,333.036041 245.970856,329.440277 246.073578,325.864441 
	C246.274628,318.864868 247.137131,311.886322 247.605026,304.890961 
	C247.711533,303.298645 247.828659,301.371674 247.075928,300.118195 
	C244.507950,295.841858 247.748245,292.867950 250.284119,292.311920 
	C254.497009,291.388092 259.192474,292.132751 263.586029,292.812469 
	C265.492737,293.107452 268.252228,294.658356 268.714966,296.208710 
	C269.943939,300.326172 270.389771,304.736633 270.679565,309.061890 
	C271.171783,316.409027 271.363434,323.778625 271.569366,331.141876 
	C271.710327,336.181763 271.638824,341.227295 271.719727,346.269379 
	C271.732697,347.079437 271.970367,347.910309 272.233063,348.688049 
	C274.305328,354.823578 279.827026,357.514221 286.722748,355.779419 
	C291.124969,354.671936 293.439911,349.531311 292.512787,343.481110 
	C291.891754,339.428467 291.172394,335.316528 291.254913,331.246521 
	C291.406830,323.758392 292.514984,316.280396 292.491577,308.800476 
	C292.463959,299.971924 291.731232,291.140869 291.122681,282.323425 
	C291.016876,280.790161 290.435455,278.756317 289.338470,277.931610 
	C286.736877,275.975769 283.694031,274.606903 279.960022,272.941650 
z"/>
<path fill="#BDBDBD" opacity="1.000000" stroke="none" 
	d="
M131.953156,360.711884 
	C123.699211,354.412811 123.158195,345.606598 123.200706,336.701752 
	C123.224060,331.808899 122.654251,326.511688 124.285492,322.114044 
	C127.411682,313.686188 122.303413,305.053467 126.530724,296.452209 
	C128.920700,291.589264 126.570915,284.594910 128.154510,279.076691 
	C129.488159,274.429382 133.358643,270.484833 136.268753,266.343414 
	C136.687286,265.747833 138.035690,265.527008 138.925262,265.583344 
	C150.010513,266.285339 161.081589,267.285065 172.175522,267.744751 
	C177.783875,267.977112 183.429184,267.099030 189.061295,267.035583 
	C195.447144,266.963593 205.683502,275.228638 205.635773,281.258362 
	C205.572922,289.196686 204.529053,297.167999 203.343719,305.040314 
	C202.708847,309.256775 201.462677,313.594391 199.490616,317.351562 
	C195.482727,324.987518 188.283508,327.576630 180.058975,327.982300 
	C173.980347,328.282166 167.907944,328.708252 161.832764,329.078064 
	C161.831284,329.499329 161.829803,329.920593 161.828323,330.341858 
	C164.486115,330.341858 167.146805,330.261261 169.801102,330.357269 
	C177.243561,330.626434 184.878799,330.070343 192.048355,331.630463 
	C196.119919,332.516418 199.492462,336.837250 203.004837,339.817444 
	C203.500244,340.237793 203.090683,341.847229 202.936798,342.881989 
	C202.698792,344.482758 201.579636,346.409088 202.132217,347.589905 
	C204.262070,352.141205 201.376083,354.133575 198.552460,356.669586 
	C193.670395,361.054382 188.281067,362.404480 181.708679,362.085388 
	C165.274078,361.287415 148.805145,361.196625 131.953156,360.711884 
M132.102005,285.905609 
	C132.223053,290.201538 133.518219,294.911957 132.183136,298.693848 
	C130.297455,304.035370 129.783295,308.896973 131.415298,314.177368 
	C131.751953,315.266663 131.953659,316.505829 131.802643,317.619629 
	C130.993942,323.583954 129.653610,329.505859 129.286285,335.490906 
	C128.994827,340.239990 129.509277,345.112610 130.279160,349.830322 
	C130.949005,353.935089 133.793365,355.730957 138.179901,355.734375 
	C152.251434,355.745331 166.367096,355.453857 180.374512,356.500153 
	C186.891815,356.986969 191.635757,355.715668 195.141022,351.619141 
	C195.141022,348.033508 195.141022,345.074646 195.141022,341.545197 
	C192.628876,337.892517 188.329483,336.794922 183.378128,336.915192 
	C175.782867,337.099731 168.161667,336.757202 160.592926,337.260925 
	C156.907272,337.506256 154.369354,335.864044 153.423447,333.251007 
	C152.798935,331.525757 154.175110,328.329834 155.661407,326.722534 
	C160.751068,321.218475 168.023941,322.898010 174.226730,322.790314 
	C181.921310,322.656677 191.862610,320.716644 193.321472,315.818665 
	C195.825424,307.411926 201.213577,299.388519 198.098557,289.876282 
	C197.757584,288.835083 197.928848,287.545471 198.132141,286.419739 
	C199.463028,279.050720 194.821442,273.752045 187.166748,273.855774 
	C180.410385,273.947327 173.648590,274.065399 166.896011,273.897736 
	C159.259338,273.708160 151.632950,273.132965 143.996994,272.876984 
	C138.270172,272.684998 134.948135,275.200104 133.295685,280.695923 
	C132.865250,282.127441 132.596481,283.607574 132.102005,285.905609 
z"/>
<path fill="#BDBDBD" opacity="1.000000" stroke="none" 
	d="
M369.715942,331.011963 
	C374.107758,333.872345 379.622589,335.906342 381.619293,339.762146 
	C383.517975,343.428650 383.562836,350.442291 381.197174,353.430939 
	C376.332733,359.576324 369.467072,363.084351 360.360107,362.169525 
	C347.370911,360.864655 334.209320,361.148438 321.118744,361.017517 
	C308.713959,360.893433 303.748993,357.037170 303.231079,344.363159 
	C302.858002,335.233337 304.307617,326.032043 304.871948,316.858215 
	C304.982880,315.054840 304.679413,313.229492 304.713043,311.417023 
	C304.782654,307.667786 304.876038,303.915985 305.099731,300.173615 
	C305.306091,296.720856 306.137451,293.250824 305.919098,289.837921 
	C305.335846,280.722076 308.749634,273.303986 314.874756,266.932678 
	C315.632050,266.144958 317.144867,265.649902 318.267700,265.714355 
	C329.527283,266.360321 340.770782,267.329926 352.035767,267.818329 
	C356.808350,268.025269 361.619385,267.088989 366.415771,267.053711 
	C378.250031,266.966675 384.870117,275.096832 384.264618,286.769135 
	C383.942291,292.982330 385.373138,299.377533 382.861664,305.330719 
	C380.115265,311.840698 380.350250,320.204834 372.650452,323.826813 
	C368.849548,325.614716 364.752808,327.197266 360.634399,327.787506 
	C354.436096,328.675812 348.101379,328.612000 341.791870,330.081329 
	C350.961823,330.381409 360.131744,330.681488 369.715942,331.011963 
M338.006226,355.743164 
	C345.446777,355.941193 353.007294,355.390961 360.292419,356.558655 
	C366.887848,357.615784 370.957977,354.990173 374.125427,351.619690 
	C374.125427,347.757812 374.125427,344.962677 374.125427,341.638947 
	C371.850037,337.988678 367.716522,336.855225 362.927094,336.945374 
	C355.166534,337.091492 347.383850,336.771576 339.648865,337.258331 
	C335.989685,337.488586 333.403046,335.944336 332.452789,333.295685 
	C331.829437,331.558228 333.148895,328.335022 334.640167,326.769989 
	C339.909302,321.240234 347.194641,323.221893 353.662476,322.782745 
	C360.749207,322.301666 369.027985,322.925507 372.123779,315.756409 
	C375.547821,307.827209 380.130646,299.440002 377.145050,289.902863 
	C376.695190,288.465759 377.619629,286.653015 377.516144,285.039185 
	C377.385010,282.994751 377.558563,280.035156 376.354248,279.131561 
	C373.347351,276.875458 369.761475,274.527893 366.179596,274.091400 
	C359.856964,273.320953 353.359619,274.119781 346.944183,273.942993 
	C338.144501,273.700500 329.355469,273.057495 320.555634,272.847992 
	C319.043884,272.812012 317.121063,273.707306 316.039337,274.810791 
	C311.660706,279.277588 310.367981,284.955597 311.235718,290.936096 
	C312.536713,299.902496 307.972778,308.373138 310.361725,317.793213 
	C311.919647,323.936493 308.578857,331.208557 308.112244,338.021515 
	C307.833832,342.086212 308.553772,346.308319 309.413025,350.334167 
	C310.121002,353.651031 312.429352,355.721588 316.214325,355.713440 
	C323.174988,355.698486 330.135986,355.827454 338.006226,355.743164 
z"/>
<path fill="#BCBCBC" opacity="1.000000" stroke="none" 
	d="
M357.002502,155.516144 
	C359.828857,149.858444 364.116333,146.371399 370.075745,146.050049 
	C380.617554,145.481583 391.186584,145.230347 401.744751,145.214966 
	C409.539612,145.203613 417.338867,145.709290 425.129242,146.117508 
	C429.826752,146.363647 433.871094,151.306061 433.929504,156.983643 
	C434.040009,167.731537 434.155182,178.485489 433.894226,189.227859 
	C433.798889,193.153122 432.195831,197.037064 432.058990,200.966980 
	C431.781769,208.930084 431.997711,216.912109 432.080566,224.885590 
	C432.183228,234.766754 423.107086,241.744080 412.088806,240.967941 
	C403.904266,240.391388 395.647644,240.921814 387.428925,240.721329 
	C380.863922,240.561188 374.176270,240.723206 367.784760,239.489899 
	C361.510864,238.279282 356.482758,234.303894 355.081848,227.528625 
	C353.515869,219.954834 351.406342,212.343185 355.565155,204.716934 
	C356.632843,202.759018 356.108398,199.961395 356.451721,197.569107 
	C356.655182,196.151688 356.712860,194.430237 357.541901,193.431213 
	C363.374908,186.402039 369.754303,180.402466 379.775116,179.863785 
	C385.605804,179.550354 391.374908,178.091492 397.188660,177.145264 
	C397.066223,176.773178 396.978149,176.290344 396.897644,176.291611 
	C388.020782,176.430252 379.088531,176.047684 370.283447,176.930771 
	C361.024139,177.859375 355.848541,169.442139 356.719757,162.410080 
	C356.984497,160.273361 356.913483,158.095032 357.002502,155.516144 
M425.566498,203.478180 
	C426.023193,200.195328 426.708801,196.925140 426.891418,193.627106 
	C427.343109,185.469727 427.634094,177.301376 427.842957,169.133682 
	C427.923035,166.002701 427.337799,162.845367 427.526794,159.728592 
	C427.849823,154.402039 425.854950,152.090652 420.450073,152.115005 
	C404.563141,152.186569 388.667297,152.594131 372.792358,152.188492 
	C362.782806,151.932724 360.495911,161.336441 363.810242,167.945221 
	C364.505981,169.332611 366.670990,170.823715 368.166382,170.831451 
	C377.060486,170.877411 385.960114,170.586136 394.850952,170.233704 
	C399.702698,170.041397 404.859711,172.784012 405.179474,176.063034 
	C405.506836,179.420364 401.424744,183.711884 397.243683,184.233658 
	C391.183075,184.989960 385.117218,185.726120 379.037628,186.302414 
	C370.148224,187.145111 364.035858,192.967804 362.815277,201.769516 
	C362.545013,203.718460 362.141449,205.822800 361.153046,207.467163 
	C357.500885,213.543152 359.294525,219.796524 360.548004,225.864990 
	C361.596985,230.943405 366.714874,234.715469 371.820374,234.859558 
	C377.739777,235.026627 383.668793,234.819061 389.593384,234.842407 
	C397.405670,234.873199 405.236176,234.658676 413.024963,235.120667 
	C422.085876,235.658096 426.713196,230.751816 425.214935,221.711807 
	C424.869354,219.626694 424.577911,217.048599 425.479004,215.339081 
	C427.513428,211.479553 426.395721,207.959793 425.566498,203.478180 
z"/>
<path fill="#BDBDBD" opacity="1.000000" stroke="none" 
	d="
M179.075333,174.076553 
	C177.122955,180.488235 174.330933,185.848404 168.291428,188.729950 
	C161.855072,191.800827 152.139709,187.376328 149.954300,180.589828 
	C149.637283,179.605408 148.290878,178.952484 147.420807,178.146164 
	C146.903519,179.235199 145.714691,180.529114 145.974594,181.381012 
	C148.162613,188.552750 146.743484,195.504852 145.159180,202.490356 
	C144.980835,203.276688 144.802979,204.480392 145.222717,204.920731 
	C149.527863,209.437378 146.515930,214.181961 146.008057,218.931885 
	C145.729248,221.539581 146.763199,224.261459 146.831848,226.941437 
	C146.879822,228.814041 146.956207,231.321884 145.876312,232.475128 
	C141.641312,236.997818 137.832214,241.829254 130.116364,241.232239 
	C120.169159,240.462555 113.341980,234.882736 113.234169,224.760239 
	C113.164192,218.190292 114.575470,211.600800 114.452614,205.036362 
	C114.352226,199.672455 112.784767,194.351959 112.203926,188.975891 
	C111.765686,184.919647 111.859337,180.805954 111.715431,176.717865 
	C111.567551,172.517227 111.837006,168.248947 111.170815,164.132111 
	C110.205849,158.168793 112.690285,149.703644 117.552551,146.801193 
	C119.310562,145.751785 122.029388,146.050812 124.291519,146.150162 
	C137.311691,146.721954 150.322891,147.502716 163.344238,148.040955 
	C171.159409,148.363998 178.508530,156.291016 178.240158,164.040192 
	C178.129181,167.244537 178.828964,170.476974 179.075333,174.076553 
M170.782715,178.073105 
	C174.185379,174.033142 172.139236,169.613953 171.847885,165.235321 
	C171.453201,159.303207 167.971786,154.972748 162.086029,154.623077 
	C149.738541,153.889450 137.370193,153.510941 125.020706,152.806076 
	C118.907806,152.457184 115.496094,157.090561 116.743774,163.374435 
	C117.590492,167.638870 117.184090,172.146317 117.410370,176.541367 
	C117.637146,180.945862 117.799339,185.362320 118.270294,189.743393 
	C118.845886,195.097900 120.256683,200.414963 120.316154,205.759232 
	C120.389168,212.319321 119.630692,218.912903 118.879028,225.451477 
	C118.041954,232.732956 128.315292,238.570038 135.135483,234.562302 
	C137.318634,233.279404 139.328201,230.311813 139.798859,227.810532 
	C140.625412,223.417694 140.181900,218.789383 140.319763,214.261200 
	C140.358246,212.997696 141.158295,211.319305 140.606735,210.547256 
	C137.107437,205.649063 139.641525,200.648407 139.878418,195.657501 
	C140.060684,191.817368 140.378418,187.740524 139.344757,184.139572 
	C137.541351,177.857025 140.808823,174.326782 145.297607,172.164978 
	C149.001251,170.381287 154.150497,174.073502 155.740280,178.768463 
	C156.196716,180.116394 157.314529,181.593033 158.538605,182.268066 
	C164.177963,185.377960 165.848419,184.778580 170.782715,178.073105 
z"/>
<path fill="#BEBEBE" opacity="1.000000" stroke="none" 
	d="
M183.684113,233.085251 
	C180.081345,225.296997 183.361450,217.418121 183.381744,209.582840 
	C183.411591,198.065491 187.200500,186.814026 184.482910,174.972076 
	C183.228531,169.506012 185.396057,163.252975 186.033859,157.359116 
	C186.067261,157.050400 186.224350,156.617783 186.459274,156.488083 
	C193.591522,152.550079 191.436661,147.102203 188.769943,141.710266 
	C184.418182,132.911240 186.217438,125.804428 193.257065,118.920456 
	C200.177170,112.153351 215.046875,114.269562 219.589874,125.554977 
	C219.898956,126.322800 219.513062,127.455925 219.237640,128.353897 
	C218.800980,129.777557 217.705231,131.151169 217.719955,132.537109 
	C217.838394,143.682816 209.363113,145.625397 201.345535,148.117294 
	C201.037994,148.212891 200.762680,148.412201 200.473938,148.566437 
	C204.499588,150.949554 208.486710,153.395096 212.560455,155.686661 
	C215.365036,157.264297 216.144424,159.418350 216.119720,162.656052 
	C216.063385,170.038544 216.688416,177.423706 216.848511,184.811859 
	C216.898193,187.104599 215.952484,189.441925 216.135178,191.704529 
	C216.759872,199.440842 217.379242,207.200378 218.571625,214.862198 
	C220.016144,224.144043 219.415421,232.367615 210.893341,238.414444 
	C208.866867,239.852356 207.443146,240.944962 204.836716,240.131866 
	C203.166565,239.610855 201.159958,239.768661 199.380524,240.071198 
	C193.597290,241.054474 189.063110,238.849335 184.920670,234.299255 
	C184.387100,233.479584 184.035599,233.282425 183.684113,233.085251 
M188.616287,206.305344 
	C188.797775,207.328903 188.979263,208.352478 189.079468,210.232925 
	C188.539536,214.288452 187.981369,218.341644 187.463928,222.400040 
	C186.686203,228.499954 188.343994,232.080521 192.976212,234.396973 
	C195.266525,235.542297 206.661041,234.095093 208.443695,232.565018 
	C213.041168,228.618881 214.408875,223.282928 212.454803,218.102112 
	C207.274979,204.368881 211.545761,190.021591 208.976440,176.181564 
	C208.807373,175.270920 209.406265,174.244186 209.408722,173.270844 
	C209.423157,167.582413 211.015488,161.400436 205.001587,156.942627 
	C204.903229,156.122665 204.804886,155.302719 204.706528,154.482758 
	C203.778824,155.062592 202.851120,155.642441 201.085464,156.348267 
	C192.928528,155.828751 192.203094,156.487320 191.828674,164.530777 
	C191.791458,165.330536 191.243042,166.103775 191.191376,166.906021 
	C190.887039,171.630920 190.337143,176.370789 190.483414,181.086563 
	C190.692688,187.833466 192.343674,194.579147 189.157944,201.154297 
	C188.532227,202.445740 189.127106,204.328552 188.616287,206.305344 
M191.972397,134.235428 
	C192.320511,135.515976 192.755280,136.780136 193.001114,138.080032 
	C193.863083,142.637619 196.346725,144.083038 200.763489,142.481293 
	C206.127106,140.536163 210.539978,138.749588 211.288879,131.411530 
	C211.781326,126.586227 211.437027,123.413910 207.181580,122.212120 
	C198.914383,119.877350 192.969284,124.243370 191.972397,134.235428 
z"/>
<path fill="#BDBDBD" opacity="1.000000" stroke="none" 
	d="
M441.072418,185.345947 
	C443.034119,181.002487 442.977417,177.247040 441.774109,172.914337 
	C440.935059,169.893173 442.821869,166.213989 442.928375,162.811142 
	C443.170807,155.067169 442.932892,147.308548 443.153839,139.563385 
	C443.285706,134.941086 442.596985,129.598129 444.654816,125.903412 
	C447.262817,121.220947 450.820923,116.293396 458.191437,116.811607 
	C465.051147,117.293915 469.785858,119.881233 471.807800,126.252251 
	C473.682098,132.158051 475.938141,137.931046 474.341461,144.681610 
	C473.371796,148.781036 475.046997,153.487915 475.428070,157.931015 
	C475.703949,161.147736 476.312378,164.452789 475.858307,167.585968 
	C475.277100,171.596283 474.135315,175.410233 477.332947,178.860764 
	C477.723511,179.282211 477.831451,180.096375 477.832306,180.728867 
	C477.849182,193.295746 477.731171,205.863968 477.890533,218.428726 
	C477.929962,221.536148 478.518311,224.735306 479.448547,227.706207 
	C480.469910,230.968033 478.841064,232.576248 476.738495,234.467087 
	C468.128296,242.210129 457.957642,241.212341 448.087067,238.820892 
	C445.248291,238.133118 442.130157,233.758667 441.352509,230.539993 
	C440.191345,225.734192 441.079956,220.451767 440.916565,215.377914 
	C440.841705,213.053223 440.360901,210.739029 440.020569,208.426498 
	C439.836487,207.175537 439.010315,205.709732 439.416016,204.731735 
	C441.984344,198.541000 441.859100,192.198639 441.072418,185.345947 
M467.306580,135.006607 
	C466.633972,132.621521 466.299011,130.070236 465.222809,127.883812 
	C462.460419,122.271736 456.364899,121.773102 451.797577,126.010895 
	C447.634399,129.873764 449.031555,134.694672 448.922455,139.081131 
	C448.664825,149.437668 450.809814,159.900345 447.102448,170.073639 
	C446.792358,170.924545 446.827332,172.227570 447.276886,172.974564 
	C449.711121,177.019287 448.945435,180.887161 447.177704,184.887787 
	C446.692657,185.985504 446.895172,187.397003 446.826324,188.666901 
	C446.563782,193.508987 446.323578,198.352280 446.065277,203.194611 
	C445.991241,204.582855 445.771942,205.972870 445.815125,207.355972 
	C445.919312,210.690643 446.197754,214.019943 446.297607,217.354645 
	C446.423889,221.570450 445.856659,225.923767 446.778107,229.945221 
	C447.182892,231.711868 450.351501,233.416840 452.578552,234.052994 
	C455.514130,234.891541 458.754730,234.758484 461.869965,234.852722 
	C469.430054,235.081421 473.696655,229.311417 471.397705,222.241287 
	C470.953766,220.876083 470.961090,219.325806 470.963226,217.861191 
	C470.969299,213.731598 471.228210,209.597839 471.107361,205.473938 
	C470.997864,201.736954 470.321075,198.014221 470.256165,194.278931 
	C470.180603,189.926712 470.507263,185.567932 470.624512,181.211060 
	C470.632416,180.918381 470.413452,180.549637 470.188446,180.331192 
	C466.806732,177.048645 468.413666,173.280548 469.025879,169.553787 
	C469.452667,166.955795 470.341339,164.097321 469.688721,161.722000 
	C467.798645,154.842880 466.785522,148.069077 468.264069,140.976089 
	C468.606384,139.333862 467.893860,137.471756 467.306580,135.006607 
z"/>
<path fill="#5F5F5F" opacity="1.000000" stroke="none" 
	d="
M347.078491,400.119751 
	C347.644897,399.833069 348.259644,399.870026 348.874451,399.906982 
	C348.512115,400.332672 348.149780,400.758362 347.469238,401.140686 
	C347.142914,400.879272 347.134857,400.661316 347.078491,400.119751 
z"/>
<path fill="#BCBCBC" opacity="1.000000" stroke="none" 
	d="
M183.842010,233.331635 
	C184.035599,233.282425 184.387100,233.479584 184.834686,233.974991 
	C184.620514,234.041489 184.310211,233.809769 183.842010,233.331635 
z"/>
<path fill="#E6E6E6" opacity="1.000000" stroke="none" 
	d="
M406.035034,394.216522 
	C420.453888,394.216553 434.379974,394.216553 448.306030,394.216553 
	C448.363403,394.476562 448.420776,394.736603 448.478149,394.996613 
	C447.345734,395.381989 446.232880,395.843384 445.077881,396.141144 
	C431.890472,399.540833 418.649658,402.746918 405.533569,406.401154 
	C401.666931,407.478394 399.705627,406.611450 398.226990,403.080322 
	C397.090179,400.365601 395.496033,397.842316 393.562805,394.216492 
	C398.116577,394.216492 401.829407,394.216492 406.035034,394.216522 
z"/>
<path fill="#030303" opacity="1.000000" stroke="none" 
	d="
M72.716988,263.658569 
	C65.828796,262.941925 60.910839,265.665314 58.657471,271.106720 
	C58.403496,271.720001 57.865379,272.380829 57.950779,272.945221 
	C60.112465,287.231689 55.486866,301.191345 55.940220,315.400970 
	C56.102139,320.476013 54.764301,325.790955 55.904819,330.568085 
	C56.550629,333.273102 60.572205,336.454620 63.540966,337.036774 
	C68.615456,338.031860 74.057472,337.154358 79.345039,337.058197 
	C79.839447,337.049194 80.384750,337.130920 80.819504,336.955292 
	C87.209572,334.374023 89.650177,320.127960 84.104668,316.001373 
	C82.570168,314.859528 79.448425,315.433319 77.155403,315.818359 
	C72.882668,316.535858 69.167206,316.352631 67.091881,311.855530 
	C64.444275,306.118195 69.685135,296.929840 76.094650,296.541046 
	C82.966049,296.124268 89.872955,296.328461 96.758194,296.086273 
	C99.376450,295.994110 101.971756,295.362823 104.587753,295.067871 
	C108.757637,294.597717 110.559586,297.540619 110.643318,300.715027 
	C110.797752,306.570496 112.306618,312.648102 108.605583,318.247742 
	C107.756897,319.531799 109.433128,322.342804 108.719566,323.881836 
	C105.075951,331.740417 109.453423,340.575104 105.236786,348.446472 
	C103.106987,352.422272 101.197479,355.474213 96.214935,355.385071 
	C80.467072,355.103394 64.717461,354.919708 48.968430,354.705353 
	C46.146767,354.666962 43.310005,354.471039 40.505901,354.684784 
	C35.362980,355.076782 34.080532,351.599152 33.278572,346.802368 
	C32.335129,341.159393 34.605675,336.054962 33.758064,330.646362 
	C33.354786,328.073090 34.227524,325.325012 34.220135,322.656952 
	C34.213589,320.293335 33.280518,317.850250 33.640469,315.582520 
	C34.893414,307.689026 36.197300,299.876221 33.065620,292.095062 
	C32.717865,291.231018 32.628334,289.914948 33.044254,289.147217 
	C36.128723,283.454132 35.656109,277.456238 35.052780,271.349365 
	C34.684326,267.619843 34.713364,263.834930 34.805336,260.080811 
	C34.889179,256.658630 34.752544,253.084656 35.694569,249.864731 
	C37.054096,245.217667 40.412804,243.719482 45.603825,243.963623 
	C57.768948,244.535828 69.977875,244.109283 82.166550,244.273605 
	C89.591583,244.373718 97.045723,244.500381 104.416855,245.278046 
	C107.150764,245.566467 109.684990,247.747650 112.790176,249.306580 
	C110.426483,253.062225 108.653122,256.467072 106.326492,259.438751 
	C102.853615,263.874451 97.435417,263.519104 92.602966,263.804626 
	C86.138664,264.186523 79.629723,263.812866 72.716988,263.658569 
z"/>
<path fill="#030303" opacity="1.000000" stroke="none" 
	d="
M32.972618,145.965607 
	C32.928905,139.773346 32.387680,133.993576 33.177895,128.401962 
	C33.439381,126.551697 36.959572,124.211929 39.290081,123.801712 
	C44.156269,122.945145 49.223621,123.041222 54.206116,123.074829 
	C64.925697,123.147141 75.646935,123.328598 86.361473,123.659874 
	C92.768112,123.857948 100.290207,131.956299 101.017609,138.407776 
	C101.925415,146.459305 98.196114,153.526627 96.629143,161.026657 
	C95.827377,164.864105 93.649200,168.643661 91.298866,171.870956 
	C88.214851,176.105698 83.577911,177.728653 78.212296,177.740250 
	C72.058556,177.753525 65.893303,178.152176 59.756672,178.665680 
	C54.285305,179.123520 49.825619,185.678085 51.966244,190.592697 
	C54.987186,197.528427 52.262470,204.438812 52.715084,211.330811 
	C52.847721,213.350540 52.483868,215.530655 53.126083,217.364639 
	C54.894150,222.413651 53.674820,231.136505 49.533348,232.376572 
	C44.469765,233.892761 38.682850,233.996460 33.389301,233.312759 
	C30.792683,232.977386 28.662006,230.346634 29.311361,225.740906 
	C29.955084,221.175125 28.560890,216.305481 29.330406,211.226761 
	C30.525261,203.340897 29.673769,195.169205 30.236570,187.157074 
	C30.914095,177.511765 32.294392,167.917587 33.102322,158.278793 
	C33.430222,154.366852 33.051342,150.395660 32.972618,145.965607 
M75.369392,151.749451 
	C77.605721,146.692947 77.074051,143.389404 73.559296,142.965378 
	C68.080559,142.304413 62.525421,142.255753 56.998894,142.047485 
	C56.502552,142.028778 55.935192,142.692307 55.474483,143.118607 
	C51.457394,146.835724 53.453526,151.890579 53.128944,156.249893 
	C53.028061,157.604813 57.108036,159.755127 59.594288,160.683914 
	C62.133633,161.632538 65.062782,161.787308 67.827850,161.826569 
	C72.575851,161.893982 76.327911,157.002731 75.369392,151.749451 
z"/>
<path fill="#FBFBFB" opacity="1.000000" stroke="none" 
	d="
M81.359863,326.469421 
	C79.365402,327.869812 77.668320,329.631073 75.781494,329.865540 
	C71.814476,330.358551 67.747841,330.050110 63.722088,330.070618 
	C63.439117,325.400574 63.156147,320.730530 62.785835,314.619080 
	C67.271873,321.302734 72.496750,322.492035 78.848190,321.119751 
	C82.553848,320.319122 83.392242,322.129028 81.359863,326.469421 
z"/>
<path fill="#030303" opacity="1.000000" stroke="none" 
	d="
M319.229523,180.042923 
	C315.930481,172.023010 311.175354,169.441330 303.243408,171.052902 
	C300.427917,171.624939 298.742676,175.397583 299.508209,178.565918 
	C299.931641,180.318268 299.730652,182.251007 299.622650,184.091354 
	C299.556610,185.216309 298.580292,186.571548 298.954773,187.395126 
	C303.103241,196.519836 299.435730,205.709534 299.462555,214.857285 
	C299.474152,218.805191 300.526733,222.744888 300.624268,226.700211 
	C300.663483,228.291763 299.860870,230.499634 298.665710,231.422821 
	C293.525360,235.393494 286.944336,235.550507 282.887054,231.759338 
	C281.548431,230.508514 280.825836,228.242783 280.507751,226.327164 
	C279.777710,221.930466 279.344696,217.472626 279.025970,213.022797 
	C278.712219,208.642441 278.699982,204.240891 278.534393,199.849426 
	C278.250763,192.326324 278.303833,184.762955 277.440582,177.306198 
	C277.184448,175.093460 274.688141,171.979599 272.600555,171.359909 
	C266.665680,169.598175 261.477722,174.031662 261.014648,180.347763 
	C260.407745,188.625549 259.572998,196.894669 259.277252,205.183273 
	C259.156677,208.561966 260.320404,211.969284 260.659454,215.387436 
	C260.898682,217.799179 260.801361,220.253113 260.729248,222.684494 
	C260.655090,225.185806 260.429199,227.682617 260.212128,231.083359 
	C256.884460,235.983093 250.640350,234.035858 245.291046,234.294632 
	C244.006348,234.356796 241.852005,230.623047 241.275009,228.337753 
	C239.839615,222.652725 238.271011,216.822296 240.887177,210.952820 
	C241.183365,210.288345 240.999619,209.236389 240.697144,208.505264 
	C237.407272,200.553055 238.810043,192.006165 237.977524,183.792603 
	C237.398087,178.076019 236.630859,173.504562 232.289230,169.511551 
	C229.822067,167.242477 230.568420,156.871140 233.062897,154.644058 
	C234.142960,153.679764 236.015671,153.229965 237.542099,153.197723 
	C250.276733,152.928757 263.014435,152.801743 275.751495,152.656128 
	C278.749634,152.621857 281.749420,152.723328 284.747498,152.686844 
	C295.635101,152.554352 306.522217,152.293655 317.409760,152.278763 
	C322.701782,152.271530 328.005493,152.561447 333.283295,152.977753 
	C337.493683,153.309860 340.665863,158.579178 340.611542,163.263565 
	C340.545105,168.991165 341.219971,174.726059 341.527252,180.460312 
	C341.596222,181.747406 341.364563,183.052429 341.455505,184.336151 
	C341.672272,187.395782 342.174744,190.443863 342.240692,193.503510 
	C342.342743,198.236221 342.691345,203.055420 341.965149,207.685760 
	C341.361633,211.533875 339.262360,214.895523 342.381439,218.832611 
	C344.351044,221.318787 341.005341,233.308914 338.049133,234.323868 
	C334.581543,235.514450 330.638306,235.319641 326.387726,235.781540 
	C323.485748,229.770325 319.485168,224.856033 320.465118,216.471573 
	C321.845734,204.659027 319.883789,192.455826 319.229523,180.042923 
z"/>
<path fill="#030303" opacity="1.000000" stroke="none" 
	d="
M402.896912,338.734283 
	C404.746796,337.905884 406.384796,337.076660 408.029297,337.063599 
	C416.670380,336.994720 425.313110,337.178131 433.955292,337.181702 
	C439.611389,337.184052 439.611420,337.113922 442.821503,332.080627 
	C440.957397,325.295410 435.011169,325.878723 430.019226,325.392700 
	C423.950043,324.801788 417.797699,325.118988 411.701233,324.730927 
	C408.768738,324.544281 405.726654,324.035828 403.010925,322.968781 
	C398.982086,321.385773 398.263245,318.125000 397.424561,313.737488 
	C395.916687,305.849396 395.976105,298.212616 396.844818,290.454285 
	C397.373901,285.728882 397.852448,280.817200 399.586761,276.482574 
	C400.469818,274.275543 403.998047,271.925537 406.464691,271.770203 
	C415.211853,271.219330 424.018433,271.698822 432.799255,271.567566 
	C439.405151,271.468811 446.006958,270.817291 452.608551,270.848236 
	C455.401550,270.861328 458.496552,271.424896 460.916779,272.732849 
	C466.307159,275.645905 463.380188,280.738647 462.956085,284.805420 
	C462.554688,288.654541 459.105499,289.877136 455.505768,289.871826 
	C445.846710,289.857605 436.187134,289.689819 426.529205,289.764923 
	C424.290924,289.782349 421.750275,289.990112 419.893707,291.057861 
	C416.952728,292.749268 413.761414,294.798676 415.282043,299.294739 
	C417.193542,304.946564 421.494202,309.015747 425.635925,309.040314 
	C436.224792,309.103149 446.832184,308.899384 457.388519,309.531342 
	C459.947327,309.684509 464.118439,312.328308 464.497406,314.388153 
	C466.155090,323.398956 466.771057,332.608948 467.589264,341.762390 
	C467.868713,344.888641 467.633606,348.060944 467.633606,352.492889 
	C466.005707,354.828400 462.807465,356.180511 458.357117,356.154724 
	C442.228516,356.061340 426.097595,356.485077 409.967529,356.484375 
	C402.505280,356.484039 398.582062,346.853912 402.896912,338.734283 
z"/>
<path fill="#030303" opacity="1.000000" stroke="none" 
	d="
M280.394775,272.971222 
	C283.694031,274.606903 286.736877,275.975769 289.338470,277.931610 
	C290.435455,278.756317 291.016876,280.790161 291.122681,282.323425 
	C291.731232,291.140869 292.463959,299.971924 292.491577,308.800476 
	C292.514984,316.280396 291.406830,323.758392 291.254913,331.246521 
	C291.172394,335.316528 291.891754,339.428467 292.512787,343.481110 
	C293.439911,349.531311 291.124969,354.671936 286.722748,355.779419 
	C279.827026,357.514221 274.305328,354.823578 272.233063,348.688049 
	C271.970367,347.910309 271.732697,347.079437 271.719727,346.269379 
	C271.638824,341.227295 271.710327,336.181763 271.569366,331.141876 
	C271.363434,323.778625 271.171783,316.409027 270.679565,309.061890 
	C270.389771,304.736633 269.943939,300.326172 268.714966,296.208710 
	C268.252228,294.658356 265.492737,293.107452 263.586029,292.812469 
	C259.192474,292.132751 254.497009,291.388092 250.284119,292.311920 
	C247.748245,292.867950 244.507950,295.841858 247.075928,300.118195 
	C247.828659,301.371674 247.711533,303.298645 247.605026,304.890961 
	C247.137131,311.886322 246.274628,318.864868 246.073578,325.864441 
	C245.970856,329.440277 247.248734,333.036041 247.393433,336.643188 
	C247.634476,342.651794 248.677856,349.278961 242.898575,353.361725 
	C240.313202,355.188202 236.200165,356.522217 233.380188,355.785095 
	C231.352753,355.255127 229.716751,351.083405 228.969559,348.255219 
	C227.503296,342.705475 226.557724,336.987946 225.831207,331.284485 
	C225.407745,327.960144 226.000031,324.519867 225.831207,321.146973 
	C225.423996,313.010925 225.222198,304.830994 224.116013,296.781677 
	C223.728317,293.960571 220.940521,291.469177 219.248230,288.827484 
	C216.089401,283.896576 216.437027,277.451569 220.313492,275.085663 
	C222.044968,274.028900 224.327026,273.393524 226.359863,273.391876 
	C236.942978,273.383362 247.526779,273.787750 258.109406,273.754303 
	C265.393707,273.731262 272.676544,273.229462 280.394775,272.971222 
z"/>
<path fill="#030303" opacity="1.000000" stroke="none" 
	d="
M132.177734,285.485504 
	C132.596481,283.607574 132.865250,282.127441 133.295685,280.695923 
	C134.948135,275.200104 138.270172,272.684998 143.996994,272.876984 
	C151.632950,273.132965 159.259338,273.708160 166.896011,273.897736 
	C173.648590,274.065399 180.410385,273.947327 187.166748,273.855774 
	C194.821442,273.752045 199.463028,279.050720 198.132141,286.419739 
	C197.928848,287.545471 197.757584,288.835083 198.098557,289.876282 
	C201.213577,299.388519 195.825424,307.411926 193.321472,315.818665 
	C191.862610,320.716644 181.921310,322.656677 174.226730,322.790314 
	C168.023941,322.898010 160.751068,321.218475 155.661407,326.722534 
	C154.175110,328.329834 152.798935,331.525757 153.423447,333.251007 
	C154.369354,335.864044 156.907272,337.506256 160.592926,337.260925 
	C168.161667,336.757202 175.782867,337.099731 183.378128,336.915192 
	C188.329483,336.794922 192.628876,337.892517 195.141022,341.545197 
	C195.141022,345.074646 195.141022,348.033508 195.141022,351.619141 
	C191.635757,355.715668 186.891815,356.986969 180.374512,356.500153 
	C166.367096,355.453857 152.251434,355.745331 138.179901,355.734375 
	C133.793365,355.730957 130.949005,353.935089 130.279160,349.830322 
	C129.509277,345.112610 128.994827,340.239990 129.286285,335.490906 
	C129.653610,329.505859 130.993942,323.583954 131.802643,317.619629 
	C131.953659,316.505829 131.751953,315.266663 131.415298,314.177368 
	C129.783295,308.896973 130.297455,304.035370 132.183136,298.693848 
	C133.518219,294.911957 132.223053,290.201538 132.177734,285.485504 
M176.866028,298.543884 
	C177.182983,295.040955 174.034180,291.186859 170.497818,291.233612 
	C166.357239,291.288330 161.878250,290.908478 158.211166,292.377502 
	C155.935486,293.289124 153.637970,297.298492 153.668472,299.890167 
	C153.696564,302.276459 156.835297,306.644806 158.582901,306.634399 
	C165.294174,306.594482 172.285248,305.793945 176.866028,298.543884 
z"/>
<path fill="#020202" opacity="1.000000" stroke="none" 
	d="
M337.551514,355.819824 
	C330.135986,355.827454 323.174988,355.698486 316.214325,355.713440 
	C312.429352,355.721588 310.121002,353.651031 309.413025,350.334167 
	C308.553772,346.308319 307.833832,342.086212 308.112244,338.021515 
	C308.578857,331.208557 311.919647,323.936493 310.361725,317.793213 
	C307.972778,308.373138 312.536713,299.902496 311.235718,290.936096 
	C310.367981,284.955597 311.660706,279.277588 316.039337,274.810791 
	C317.121063,273.707306 319.043884,272.812012 320.555634,272.847992 
	C329.355469,273.057495 338.144501,273.700500 346.944183,273.942993 
	C353.359619,274.119781 359.856964,273.320953 366.179596,274.091400 
	C369.761475,274.527893 373.347351,276.875458 376.354248,279.131561 
	C377.558563,280.035156 377.385010,282.994751 377.516144,285.039185 
	C377.619629,286.653015 376.695190,288.465759 377.145050,289.902863 
	C380.130646,299.440002 375.547821,307.827209 372.123779,315.756409 
	C369.027985,322.925507 360.749207,322.301666 353.662476,322.782745 
	C347.194641,323.221893 339.909302,321.240234 334.640167,326.769989 
	C333.148895,328.335022 331.829437,331.558228 332.452789,333.295685 
	C333.403046,335.944336 335.989685,337.488586 339.648865,337.258331 
	C347.383850,336.771576 355.166534,337.091492 362.927094,336.945374 
	C367.716522,336.855225 371.850037,337.988678 374.125427,341.638947 
	C374.125427,344.962677 374.125427,347.757812 374.125427,351.619690 
	C370.957977,354.990173 366.887848,357.615784 360.292419,356.558655 
	C353.007294,355.390961 345.446777,355.941193 337.551514,355.819824 
M333.265717,303.112793 
	C334.685669,304.402069 335.953064,306.550903 337.551453,306.834564 
	C345.227234,308.196686 353.259583,303.629700 356.517578,296.564270 
	C351.416809,290.615143 351.417999,290.623047 343.878967,291.762817 
	C342.896820,291.911285 341.896118,291.961609 340.901794,292.001068 
	C333.720490,292.285858 331.493866,295.173828 333.265717,303.112793 
z"/>
<path fill="#030303" opacity="1.000000" stroke="none" 
	d="
M425.537720,203.881775 
	C426.395721,207.959793 427.513428,211.479553 425.479004,215.339081 
	C424.577911,217.048599 424.869354,219.626694 425.214935,221.711807 
	C426.713196,230.751816 422.085876,235.658096 413.024963,235.120667 
	C405.236176,234.658676 397.405670,234.873199 389.593384,234.842407 
	C383.668793,234.819061 377.739777,235.026627 371.820374,234.859558 
	C366.714874,234.715469 361.596985,230.943405 360.548004,225.864990 
	C359.294525,219.796524 357.500885,213.543152 361.153046,207.467163 
	C362.141449,205.822800 362.545013,203.718460 362.815277,201.769516 
	C364.035858,192.967804 370.148224,187.145111 379.037628,186.302414 
	C385.117218,185.726120 391.183075,184.989960 397.243683,184.233658 
	C401.424744,183.711884 405.506836,179.420364 405.179474,176.063034 
	C404.859711,172.784012 399.702698,170.041397 394.850952,170.233704 
	C385.960114,170.586136 377.060486,170.877411 368.166382,170.831451 
	C366.670990,170.823715 364.505981,169.332611 363.810242,167.945221 
	C360.495911,161.336441 362.782806,151.932724 372.792358,152.188492 
	C388.667297,152.594131 404.563141,152.186569 420.450073,152.115005 
	C425.854950,152.090652 427.849823,154.402039 427.526794,159.728592 
	C427.337799,162.845367 427.923035,166.002701 427.842957,169.133682 
	C427.634094,177.301376 427.343109,185.469727 426.891418,193.627106 
	C426.708801,196.925140 426.023193,200.195328 425.537720,203.881775 
M390.019592,201.992081 
	C389.297913,202.381699 388.575470,202.769928 387.854645,203.161163 
	C384.660278,204.894943 381.823181,207.126129 382.938385,211.186829 
	C384.085449,215.363281 387.768280,216.901703 392.765930,216.134064 
	C394.879517,215.809418 397.330963,216.361496 399.103424,215.470169 
	C401.370026,214.330322 403.799164,212.477295 404.875458,210.298065 
	C405.952698,208.116928 405.373260,205.618515 402.692688,203.523895 
	C398.793457,200.476959 394.806488,202.047531 390.019592,201.992081 
z"/>
<path fill="#030303" opacity="1.000000" stroke="none" 
	d="
M170.539490,178.366089 
	C165.848419,184.778580 164.177963,185.377960 158.538605,182.268066 
	C157.314529,181.593033 156.196716,180.116394 155.740280,178.768463 
	C154.150497,174.073502 149.001251,170.381287 145.297607,172.164978 
	C140.808823,174.326782 137.541351,177.857025 139.344757,184.139572 
	C140.378418,187.740524 140.060684,191.817368 139.878418,195.657501 
	C139.641525,200.648407 137.107437,205.649063 140.606735,210.547256 
	C141.158295,211.319305 140.358246,212.997696 140.319763,214.261200 
	C140.181900,218.789383 140.625412,223.417694 139.798859,227.810532 
	C139.328201,230.311813 137.318634,233.279404 135.135483,234.562302 
	C128.315292,238.570038 118.041954,232.732956 118.879028,225.451477 
	C119.630692,218.912903 120.389168,212.319321 120.316154,205.759232 
	C120.256683,200.414963 118.845886,195.097900 118.270294,189.743393 
	C117.799339,185.362320 117.637146,180.945862 117.410370,176.541367 
	C117.184090,172.146317 117.590492,167.638870 116.743774,163.374435 
	C115.496094,157.090561 118.907806,152.457184 125.020706,152.806076 
	C137.370193,153.510941 149.738541,153.889450 162.086029,154.623077 
	C167.971786,154.972748 171.453201,159.303207 171.847885,165.235321 
	C172.139236,169.613953 174.185379,174.033142 170.539490,178.366089 
z"/>
<path fill="#030303" opacity="1.000000" stroke="none" 
	d="
M204.738022,157.579941 
	C211.015488,161.400436 209.423157,167.582413 209.408722,173.270844 
	C209.406265,174.244186 208.807373,175.270920 208.976440,176.181564 
	C211.545761,190.021591 207.274979,204.368881 212.454803,218.102112 
	C214.408875,223.282928 213.041168,228.618881 208.443695,232.565018 
	C206.661041,234.095093 195.266525,235.542297 192.976212,234.396973 
	C188.343994,232.080521 186.686203,228.499954 187.463928,222.400040 
	C187.981369,218.341644 188.539536,214.288452 189.366608,209.576447 
	C189.488846,207.926193 189.323944,206.932419 189.159027,205.938629 
	C189.127106,204.328552 188.532227,202.445740 189.157944,201.154297 
	C192.343674,194.579147 190.692688,187.833466 190.483414,181.086563 
	C190.337143,176.370789 190.887039,171.630920 191.191376,166.906021 
	C191.243042,166.103775 191.791458,165.330536 191.828674,164.530777 
	C192.203094,156.487320 192.928528,155.828751 201.753784,156.479248 
	C203.194092,156.933472 203.966049,157.256699 204.738022,157.579941 
z"/>
<path fill="#050505" opacity="1.000000" stroke="none" 
	d="
M191.900024,133.823700 
	C192.969284,124.243370 198.914383,119.877350 207.181580,122.212120 
	C211.437027,123.413910 211.781326,126.586227 211.288879,131.411530 
	C210.539978,138.749588 206.127106,140.536163 200.763489,142.481293 
	C196.346725,144.083038 193.863083,142.637619 193.001114,138.080032 
	C192.755280,136.780136 192.320511,135.515976 191.900024,133.823700 
z"/>
<path fill="#BCBCBC" opacity="1.000000" stroke="none" 
	d="
M204.869812,157.261292 
	C203.966049,157.256699 203.194092,156.933472 202.172760,156.416260 
	C202.851120,155.642441 203.778824,155.062592 204.706543,154.482758 
	C204.804886,155.302719 204.903229,156.122665 204.869812,157.261292 
z"/>
<path fill="#BCBCBC" opacity="1.000000" stroke="none" 
	d="
M188.887665,206.121979 
	C189.323944,206.932419 189.488846,207.926193 189.407257,209.148010 
	C188.979263,208.352478 188.797775,207.328903 188.887665,206.121979 
z"/>
<path fill="#030303" opacity="1.000000" stroke="none" 
	d="
M467.486664,135.358719 
	C467.893860,137.471756 468.606384,139.333862 468.264069,140.976089 
	C466.785522,148.069077 467.798645,154.842880 469.688721,161.722000 
	C470.341339,164.097321 469.452667,166.955795 469.025879,169.553787 
	C468.413666,173.280548 466.806732,177.048645 470.188446,180.331192 
	C470.413452,180.549637 470.632416,180.918381 470.624512,181.211060 
	C470.507263,185.567932 470.180603,189.926712 470.256165,194.278931 
	C470.321075,198.014221 470.997864,201.736954 471.107361,205.473938 
	C471.228210,209.597839 470.969299,213.731598 470.963226,217.861191 
	C470.961090,219.325806 470.953766,220.876083 471.397705,222.241287 
	C473.696655,229.311417 469.430054,235.081421 461.869965,234.852722 
	C458.754730,234.758484 455.514130,234.891541 452.578552,234.052994 
	C450.351501,233.416840 447.182892,231.711868 446.778107,229.945221 
	C445.856659,225.923767 446.423889,221.570450 446.297607,217.354645 
	C446.197754,214.019943 445.919312,210.690643 445.815125,207.355972 
	C445.771942,205.972870 445.991241,204.582855 446.065277,203.194611 
	C446.323578,198.352280 446.563782,193.508987 446.826324,188.666901 
	C446.895172,187.397003 446.692657,185.985504 447.177704,184.887787 
	C448.945435,180.887161 449.711121,177.019287 447.276886,172.974564 
	C446.827332,172.227570 446.792358,170.924545 447.102448,170.073639 
	C450.809814,159.900345 448.664825,149.437668 448.922455,139.081131 
	C449.031555,134.694672 447.634399,129.873764 451.797577,126.010895 
	C456.364899,121.773102 462.460419,122.271736 465.222809,127.883812 
	C466.299011,130.070236 466.633972,132.621521 467.486664,135.358719 
z"/>
<path fill="#BCBCBC" opacity="1.000000" stroke="none" 
	d="
M75.300613,152.136780 
	C76.327911,157.002731 72.575851,161.893982 67.827850,161.826569 
	C65.062782,161.787308 62.133633,161.632538 59.594288,160.683914 
	C57.108036,159.755127 53.028061,157.604813 53.128944,156.249893 
	C53.453526,151.890579 51.457394,146.835724 55.474483,143.118607 
	C55.935192,142.692307 56.502552,142.028778 56.998894,142.047485 
	C62.525421,142.255753 68.080559,142.304413 73.559296,142.965378 
	C77.074051,143.389404 77.605721,146.692947 75.300613,152.136780 
M61.913162,148.110565 
	C61.410015,149.853653 60.906868,151.596725 60.403725,153.339813 
	C62.888695,153.851532 65.578606,155.152740 67.782242,154.580719 
	C69.117455,154.234116 69.699799,150.987289 71.094917,148.041458 
	C67.307953,148.041458 65.048981,148.041458 61.913162,148.110565 
z"/>
<path fill="#B9B9B9" opacity="1.000000" stroke="none" 
	d="
M176.639175,298.806152 
	C172.285248,305.793945 165.294174,306.594482 158.582901,306.634399 
	C156.835297,306.644806 153.696564,302.276459 153.668472,299.890167 
	C153.637970,297.298492 155.935486,293.289124 158.211166,292.377502 
	C161.878250,290.908478 166.357239,291.288330 170.497818,291.233612 
	C174.034180,291.186859 177.182983,295.040955 176.639175,298.806152 
z"/>
<path fill="#B9B9B9" opacity="1.000000" stroke="none" 
	d="
M333.062073,302.784546 
	C331.493866,295.173828 333.720490,292.285858 340.901794,292.001068 
	C341.896118,291.961609 342.896820,291.911285 343.878967,291.762817 
	C351.417999,290.623047 351.416809,290.615143 356.517578,296.564270 
	C353.259583,303.629700 345.227234,308.196686 337.551453,306.834564 
	C335.953064,306.550903 334.685669,304.402069 333.062073,302.784546 
z"/>
<path fill="#BABABA" opacity="1.000000" stroke="none" 
	d="
M390.421539,201.929733 
	C394.806488,202.047531 398.793457,200.476959 402.692688,203.523895 
	C405.373260,205.618515 405.952698,208.116928 404.875458,210.298065 
	C403.799164,212.477295 401.370026,214.330322 399.103424,215.470169 
	C397.330963,216.361496 394.879517,215.809418 392.765930,216.134064 
	C387.768280,216.901703 384.085449,215.363281 382.938385,211.186829 
	C381.823181,207.126129 384.660278,204.894943 387.854645,203.161163 
	C388.575470,202.769928 389.297913,202.381699 390.421539,201.929733 
z"/>
<path fill="#FBFBFB" opacity="1.000000" stroke="none" 
	d="
M62.351589,148.076019 
	C65.048981,148.041458 67.307953,148.041458 71.094917,148.041458 
	C69.699799,150.987289 69.117455,154.234116 67.782242,154.580719 
	C65.578606,155.152740 62.888695,153.851532 60.403725,153.339813 
	C60.906868,151.596725 61.410015,149.853653 62.351589,148.076019 
z"/>
</svg>